<svg xmlns="http://www.w3.org/2000/svg" xmlns:svg="http://www.w3.org/2000/svg" xmlns:xlink="http://www.w3.org/1999/xlink" id="svg7032" width="128" height="128" version="1.1" viewBox="0 0 128 128"><defs id="defs3"><linearGradient id="linearGradient2315"><stop id="stop2317" offset="0" style="stop-color:#fff"/><stop id="stop2319" offset="1" style="stop-color:#fff;stop-opacity:0"/></linearGradient><radialGradient id="radialGradient1358" cx="4.392" cy="32.308" r="6.375" gradientTransform="matrix(1,0,0,0.5098,0,16.054)" gradientUnits="userSpaceOnUse" xlink:href="#linearGradient2315"/><radialGradient id="radialGradient1360" cx="4.392" cy="32.308" r="6.375" gradientTransform="matrix(1,0,0,0.5098,0,16.054)" gradientUnits="userSpaceOnUse" xlink:href="#linearGradient2315"/></defs><g id="layer1" transform="translate(40.649776,47.509282)"><g id="g4166" transform="matrix(3.408829,0,0,3.408829,-56.246697,-64.980702)"><path style="color:#000;display:block;fill:#9db029;stroke:#596616;stroke-linecap:round;stroke-linejoin:round" id="path7042" d="m 41.625,7.7952 c 0,0 -23.063,2.8348 -23.063,2.8348 l 0,21.781 c -1.645,-0.558 -3.931,-0.703 -6.437,-0.187 -4.3563,0.897 -7.4779,3.299 -7,5.343 0.4779,2.045 4.3937,2.991 8.75,2.094 4.117,-0.848 7.684,-3.038 7.603,-5 l 0.156,-19.031 16.93,-2.896 0,17.285 c -10.25,-1.5 -13.292,2.893 -12.814,4.938 0.478,2.044 4.394,2.99 8.75,2.093 3.865,-0.796 6.632,-2.763 6.906,-4.625 l 0.219,-24.63 z"/><path style="color:#000;display:block;opacity:.51175998;fill:none;stroke:#fff" id="path2311" d="m 40.729,8.8956 -21.182,2.8344 0,21.839 c -7.565,-1.906 -13.733,1.834 -13.278,3.778 0.704,3.319 14.378,1.102 14.3,-3.139 l 0.149,-19.473 18.85,-2.892 0,19.437 c -7.566,-1.927 -13.265,1.376 -12.811,3.32 0.58,3.194 12.379,2.114 13.764,-2.657 L 40.729,8.896 Z"/><ellipse style="color:#000;display:block;opacity:.51175998;fill:url(#radialGradient1358)" id="path2313" cx="5.875" cy="32.75" rx="6.375" ry="3.25" transform="matrix(0.73452,-0.11164,0.11164,0.73452,3.9034,12.226)"/><ellipse style="color:#000;display:block;opacity:.51175998;fill:url(#radialGradient1360)" id="path2323" cx="5.875" cy="32.75" rx="6.375" ry="3.25" transform="matrix(0.73452,-0.11164,0.11164,0.73452,23.746,9.3909)"/></g></g><metadata id="metadata19"/></svg>