<svg xmlns="http://www.w3.org/2000/svg" xmlns:svg="http://www.w3.org/2000/svg" xmlns:xlink="http://www.w3.org/1999/xlink" id="svg2327" width="128" height="128" version="1.1" viewBox="0 0 128 128"><defs id="defs3"><linearGradient id="linearGradient2752"><stop id="stop2754" offset="0" style="stop-color:#9d9d9d"/><stop id="stop2756" offset="1" style="stop-color:#b9b9b9"/></linearGradient><linearGradient id="linearGradient2711"><stop id="stop2713" offset="0" style="stop-color:#909090"/><stop id="stop2715" offset="1" style="stop-color:#bebebe;stop-opacity:0"/></linearGradient><linearGradient id="linearGradient2454"><stop id="stop2456" offset="0" style="stop-color:#000"/><stop id="stop2458" offset="1" style="stop-color:#000;stop-opacity:0"/></linearGradient><linearGradient id="linearGradient2253"><stop id="stop2255" offset="0" style="stop-color:#8f8f8f"/><stop id="stop2257" offset="1" style="stop-color:#494949"/></linearGradient><linearGradient id="linearGradient2245"><stop id="stop2247" offset="0" style="stop-color:#dde1d9"/><stop id="stop2249" offset="1" style="stop-color:#cacdc6"/></linearGradient><linearGradient id="linearGradient2251" x1="8.612" x2="34.784" y1="7.229" y2="33.34" gradientTransform="matrix(1.1299,0,0,0.88506,-1.625,-1.3044)" gradientUnits="userSpaceOnUse" xlink:href="#linearGradient2245"/><linearGradient id="linearGradient2421" x1="17.698" x2="34.975" y1="13.005" y2="55.201" gradientTransform="matrix(1.1081,0,0,0.90247,1,1)" gradientUnits="userSpaceOnUse"><stop id="stop2417" offset="0" style="stop-color:#fff"/><stop id="stop2419" offset="1" style="stop-color:#fff;stop-opacity:0"/></linearGradient><radialGradient id="radialGradient2460" cx="12.576" cy="67.502" r="8.766" gradientTransform="scale(1.9258,0.51926)" gradientUnits="userSpaceOnUse" xlink:href="#linearGradient2454"/><linearGradient id="linearGradient2673" x1="11.492" x2="17.199" y1="1.654" y2="26.729" gradientTransform="matrix(1.239,0,0,0.89596,0.59055,-1.3315)" gradientUnits="userSpaceOnUse"><stop id="stop2669" offset="0" style="stop-color:#fff"/><stop id="stop2671" offset="1" style="stop-color:#fcfcff;stop-opacity:0"/></linearGradient><linearGradient id="linearGradient2681" x1="19.15" x2="16.316" y1="32.622" y2="8.867" gradientTransform="matrix(1.1741,0,0,0.94543,0.72182,-1.3315)" gradientUnits="userSpaceOnUse"><stop id="stop2677" offset="0" style="stop-color:#5b5b97"/><stop id="stop2679" offset="1" style="stop-color:#1b1b43"/></linearGradient><linearGradient id="linearGradient2689" x1="3.707" x2="3.707" y1="171.29" y2="162.45" gradientTransform="matrix(5.7052,0,0,0.17528,1,-0.67937)" gradientUnits="userSpaceOnUse"><stop id="stop2685" offset="0" style="stop-color:#000"/><stop id="stop2687" offset="1" style="stop-color:#000;stop-opacity:0"/></linearGradient><linearGradient id="linearGradient2707" x1="12.207" x2="12.128" y1="53.535" y2="64.893" gradientTransform="scale(1.8163,0.55056)" gradientUnits="userSpaceOnUse"><stop id="stop2703" offset="0" style="stop-color:#585956"/><stop id="stop2705" offset="1" style="stop-color:#bbbeb8"/></linearGradient><linearGradient id="linearGradient2717" x1="34.301" x2="35.521" y1="3.938" y2="3.845" gradientUnits="userSpaceOnUse" xlink:href="#linearGradient2711"/><linearGradient id="linearGradient2741" x1="13.629" x2="8.649" y1="101.28" y2="74.098" gradientTransform="matrix(2.1436,0,0,0.4665,1,-0.50883)" gradientUnits="userSpaceOnUse"><stop id="stop2637" offset="0" style="stop-color:#f9fff5"/><stop id="stop2639" offset="1" style="stop-color:#f9fff5;stop-opacity:0"/></linearGradient><linearGradient id="linearGradient2758" x1="8.113" x2="8.113" y1="88.509" y2="100.2" gradientTransform="scale(2.3099,0.43293)" gradientUnits="userSpaceOnUse" xlink:href="#linearGradient2752"/><linearGradient id="linearGradient2979" x1="10.391" x2="32.537" y1="5.382" y2="31.246" gradientTransform="scale(1.1044,0.90547)" gradientUnits="userSpaceOnUse" xlink:href="#linearGradient2253"/><linearGradient id="linearGradient2981" x1="18.317" x2="18.177" y1="48.643" y2="52.536" gradientTransform="scale(1.1299,0.88506)" gradientUnits="userSpaceOnUse" xlink:href="#linearGradient2245"/><linearGradient id="linearGradient2991" x1="-23.886" x2="-23.886" y1="49.953" y2="44.879" gradientTransform="scale(1.4929,0.66985)" gradientUnits="userSpaceOnUse"><stop id="stop2987" offset="0" style="stop-color:#d8dfd6"/><stop id="stop2989" offset="1" style="stop-color:#d8dfd6;stop-opacity:0"/></linearGradient><linearGradient id="linearGradient4229" x1="10.391" x2="32.537" y1="5.382" y2="31.246" gradientTransform="scale(1.1044,0.90547)" gradientUnits="userSpaceOnUse" xlink:href="#linearGradient2253"/><linearGradient id="linearGradient4231" x1="8.113" x2="8.113" y1="88.509" y2="100.2" gradientTransform="scale(2.3099,0.43293)" gradientUnits="userSpaceOnUse" xlink:href="#linearGradient2752"/><linearGradient id="linearGradient4233" x1="8.113" x2="8.113" y1="88.509" y2="100.2" gradientTransform="scale(2.3099,0.43293)" gradientUnits="userSpaceOnUse" xlink:href="#linearGradient2752"/><linearGradient id="linearGradient4235" x1="34.301" x2="35.521" y1="3.938" y2="3.845" gradientUnits="userSpaceOnUse" xlink:href="#linearGradient2711"/><linearGradient id="linearGradient4237" x1="34.301" x2="35.521" y1="3.938" y2="3.845" gradientUnits="userSpaceOnUse" xlink:href="#linearGradient2711"/><linearGradient id="linearGradient4239" x1="34.301" x2="35.521" y1="3.938" y2="3.845" gradientUnits="userSpaceOnUse" xlink:href="#linearGradient2711"/><linearGradient id="linearGradient4241" x1="34.301" x2="35.521" y1="3.938" y2="3.845" gradientUnits="userSpaceOnUse" xlink:href="#linearGradient2711"/></defs><g id="layer1" transform="translate(38.643362,39.9182)"><g id="g4203" transform="matrix(2.6216672,0,0,2.6216672,-34.496304,-39.052665)"><ellipse style="color:#000;fill:#adb0aa;fill-rule:evenodd;stroke:#4b4d4a" id="path2407" cx="-35.658" cy="29.716" rx="9.394" ry="3.94" transform="translate(57.533,3.2034)"/><ellipse style="color:#000;fill:none;stroke:#7b7f7a" id="path1825" cx="-35.658" cy="29.716" rx="9.394" ry="3.94" transform="matrix(0.94027,0,0,0.94027,55.404,4.2712)"/><ellipse style="color:#000;fill:none;stroke:url(#linearGradient2991);stroke-width:.68065" id="path2983" cx="-35.658" cy="29.716" rx="9.394" ry="3.94" transform="matrix(0.94027,0,0,0.94027,55.404,3.5212)"/><path style="fill:#d0d0d0;fill-rule:evenodd;stroke:#979797;stroke-width:.40000001;stroke-linejoin:round" id="path2411" d="m 25.688,28.766 -0.063,1 c 0,0 4.324,3.599 9,4.203 2.338,0.301 4.754,0.702 6.75,1.187 1.996,0.485 3.588,1.12 4.125,1.656 0.31,0.311 0.451,0.574 0.5,0.782 0.049,0.207 0.038,0.355 -0.094,0.562 -0.264,0.416 -1.08,0.968 -2.468,1.406 C 40.66,40.44 35.717,41 28.875,41 l 0,1 c 6.896,0 11.864,-0.528 14.844,-1.469 1.49,-0.47 2.525,-1.015 3.031,-1.812 C 47.003,38.32 47.107,37.83 47,37.375 46.893,36.92 46.615,36.49 46.219,36.094 45.341,35.216 43.682,34.687 41.625,34.188 39.568,33.688 37.109,33.273 34.75,32.969 30.031,32.36 25.688,28.766 25.688,28.766 Z"/><ellipse style="color:#000;fill:url(#radialGradient2460);fill-rule:evenodd" id="path2462" cx="24.218" cy="35.051" rx="16.882" ry="4.552" transform="matrix(1,0,0,1.3689,-1.9786,-19.021)"/><rect style="color:#000;fill:url(#linearGradient2707);fill-rule:evenodd" id="rect2699" width="9.04" height="2.74" x="17.472" y="30.704"/><path style="color:#000;fill:url(#linearGradient2251);fill-rule:evenodd;stroke:url(#linearGradient4229)" id="rect2404" d="m 7.0809,1.6956 29.588,0 c 0.911,0 1.624,0.5835 1.667,1.4016 l 1.332,25.578 c 0.058,1.118 -0.901,2.021 -2.02,2.021 l -31.546,0 c -1.1188,0 -2.0781,-0.903 -2.0199,-2.021 L 5.4141,3.0972 C 5.4543,2.3239 5.9616,1.6958 7.0808,1.6958 Z"/><path style="fill:url(#linearGradient2681);fill-rule:evenodd;stroke:#000079;stroke-width:.5;stroke-linejoin:round" id="path2377" d="m 8.4105,4.3058 -1.2422,22.045 27.651,0 -1.335,-21.952 -25.074,-0.0932 z"/><path style="fill:none;stroke:url(#linearGradient2689);stroke-width:.99618;stroke-linecap:round;stroke-opacity:.24841003" id="path2393" d="m 6.1774,28.736 31.429,0"/><path style="color:#000;fill:none;stroke:url(#linearGradient2421);stroke-opacity:.70064003" id="path2397" d="m 6.9146,2.7063 29.845,-0.0378 c 0.284,-3e-4 0.559,0.2373 0.582,0.6526 l 1.362,24.803 c 0.058,1.057 -0.54,1.786 -1.598,1.786 l -30.524,0 c -1.0589,0 -1.5933,-0.729 -1.5361,-1.786 L 6.3696,3.6301 C 6.4083,2.9144 6.536,2.7069 6.9142,2.7064 Z"/><path style="opacity:.53142999;fill:url(#linearGradient2673);fill-rule:evenodd" id="path2443" d="M 8.7115,4.7464 7.909,22.6174 C 18.954,20.2164 19.33,12.1244 33.063,9.4704 L 32.902,4.8128 8.712,4.7468 Z"/><path style="color:#000;fill:url(#linearGradient2981);fill-rule:evenodd;stroke:url(#linearGradient2979)" id="path2409" d="m 6.4622,36.817 31.003,0 c 1.119,0 0.977,0.272 1.092,0.613 l 2.834,8.425 c 0.115,0.342 0.027,0.613 -1.092,0.613 l -36.672,0 c -1.1187,0 -1.2066,-0.271 -1.0917,-0.613 L 5.3702,37.43 C 5.485,37.089 5.3431,36.817 6.4624,36.817 Z"/><path style="fill:#7a7d77;fill-rule:evenodd" id="path2611" d="m 6.3917,38.829 -1.7678,5.127 5.4801,0 0.53,-2.033 14.85,0 0.549,2.075 6.168,0 -1.679,-5.169 -24.13,0 z"/><path style="fill:#777874;fill-rule:evenodd" id="path2613" d="m 11.076,42.276 -0.442,1.68 14.761,0 -0.442,-1.768 -13.877,0.088 z"/><path style="color:#000;fill:#777a75;fill-rule:evenodd" id="path2619" d="m 37.593,38.829 1.679,5.038 -5.48,-0.088 -1.503,-4.861 5.304,-0.089 z"/><path style="color:#000;fill:url(#linearGradient4231);fill-rule:evenodd" id="path2615" d="m 37.593,38.299 1.679,5.038 -5.48,-0.088 -1.503,-4.862 5.304,-0.088 z"/><path style="fill:url(#linearGradient4233);fill-rule:evenodd" id="path2617" d="m 6.3917,38.21 -1.7678,5.127 5.4801,0 0.53,-2.033 14.85,0 0.549,2.075 6.168,0 -1.679,-5.169 -24.13,0 z"/><path style="color:#000;fill:url(#linearGradient2758);fill-rule:evenodd" id="path2621" d="m 11.076,41.746 -0.442,1.679 14.761,0 -0.442,-1.767 -13.877,0.088 z"/><path style="color:#000;fill:none;stroke:url(#linearGradient2741);stroke-width:.5;stroke-linejoin:round" id="path2631" d="m 6.1278,37.578 31.826,0 2.637,8.093 -37.261,0 2.7978,-8.093 z"/><circle style="color:#000;fill:url(#linearGradient4235);fill-rule:evenodd" id="path2709" cx="34.781" cy="3.938" r=".84" transform="matrix(1.3312,0,0,0.65845,-10.419,2.8539)"/><circle style="color:#000;fill:url(#linearGradient4237);fill-rule:evenodd" id="path2719" cx="34.781" cy="3.938" r=".84" transform="matrix(1.3312,0,0,0.65845,-10.306,4.9597)"/><circle style="color:#000;fill:url(#linearGradient4239);fill-rule:evenodd" id="path2723" cx="34.781" cy="3.938" r=".84" transform="matrix(1.3312,0,0,0.65845,-10.192,6.9597)"/><circle style="color:#000;fill:url(#linearGradient4241);fill-rule:evenodd" id="path2727" cx="34.781" cy="3.938" r=".84" transform="matrix(1.3312,0,0,0.65845,-10.079,8.9597)"/><circle style="color:#000;fill:url(#linearGradient2717);fill-rule:evenodd" id="path2731" cx="34.781" cy="3.938" r=".84" transform="matrix(1.3312,0,0,0.65845,-9.9649,10.96)"/></g></g><metadata id="metadata75"/></svg>