<svg xmlns="http://www.w3.org/2000/svg" xmlns:svg="http://www.w3.org/2000/svg" xmlns:xlink="http://www.w3.org/1999/xlink" id="svg2913" width="128" height="128" version="1.1" viewBox="0 0 128 128"><title id="title4177">Drive Removable</title><defs id="defs3"><linearGradient id="linearGradient2681"><stop id="stop2683" offset="0" style="stop-color:#000;stop-opacity:.47525"/><stop id="stop2685" offset="1" style="stop-color:#000;stop-opacity:0"/></linearGradient><linearGradient id="linearGradient4234" x1="7.605" x2="36.183" y1="28.481" y2="40.944" gradientTransform="translate(0,0.055463)" gradientUnits="userSpaceOnUse"><stop id="stop4230" offset="0" style="stop-color:#bbb"/><stop id="stop4232" offset="1" style="stop-color:#9f9f9f"/></linearGradient><radialGradient id="radialGradient4250" cx="15.571" cy="2.958" r="20.936" gradientTransform="matrix(1.2862,0.7817,-0.71078,1.1696,-2.3543,-4.8214)" gradientUnits="userSpaceOnUse"><stop id="stop4246" offset="0" style="stop-color:#e4e4e4"/><stop id="stop4248" offset="1" style="stop-color:#d3d3d3"/></radialGradient><linearGradient id="linearGradient4260" x1="12.378" x2="44.096" y1="4.433" y2="47.621" gradientTransform="translate(0,0.055463)" gradientUnits="userSpaceOnUse"><stop id="stop4256" offset="0" style="stop-color:#fff"/><stop id="stop4258" offset="1" style="stop-color:#fff;stop-opacity:0"/></linearGradient><radialGradient id="radialGradient2679" cx="40.797" cy="33.734" r=".984" gradientTransform="matrix(1.254,0,0,1.254,-10.361,-8.5675)" gradientUnits="userSpaceOnUse"><stop id="stop2675" offset="0" style="stop-color:#fff"/><stop id="stop2677" offset="1" style="stop-color:#6f6f6f"/></radialGradient><linearGradient id="linearGradient2687" x1="25.785" x2="25.785" y1="32.363" y2="35.67" gradientUnits="userSpaceOnUse" xlink:href="#linearGradient2681"/><linearGradient id="linearGradient5705" x1="34.421" x2="16.127" y1="22.705" y2="10.596" gradientUnits="userSpaceOnUse"><stop id="stop5701" offset="0" style="stop-color:#7a7a7a"/><stop id="stop5703" offset="1" style="stop-color:#a5a5a5"/></linearGradient><linearGradient id="linearGradient4192" x1="25.785" x2="25.785" y1="32.363" y2="35.67" gradientUnits="userSpaceOnUse" xlink:href="#linearGradient2681"/><linearGradient id="linearGradient13390" x1="23.335" x2="23.335" y1="-18.569" y2="-4.123" gradientTransform="matrix(1,0,0,0.9375,3.0396,-28.15)" gradientUnits="userSpaceOnUse"><stop style="stop-color:#d3d7cf" id="stop3163" offset="0"/><stop style="stop-color:#bbc1b5" id="stop3165" offset="1"/></linearGradient><linearGradient id="linearGradient13392" x1="20.405" x2="20.405" y1="6.988" y2="9.119" gradientTransform="matrix(1.3247,0,0,1.3247,-4.9552,-52.929)" gradientUnits="userSpaceOnUse" xlink:href="#linearGradient3494"/><linearGradient id="linearGradient3494"><stop style="stop-color:#2e3436;stop-opacity:.82474" id="stop3496" offset="0"/><stop style="stop-color:#2e3436;stop-opacity:0" id="stop3498" offset="1"/></linearGradient><linearGradient id="linearGradient13394" x1="21.718" x2="21.718" y1="6.18" y2="10.01" gradientTransform="matrix(1.3247,0,0,1.3247,-4.9552,-52.929)" gradientUnits="userSpaceOnUse" xlink:href="#linearGradient3506"/><linearGradient id="linearGradient3506"><stop style="stop-color:#555753" id="stop3508" offset="0"/><stop style="stop-color:#555753;stop-opacity:.2268" id="stop3510" offset="1"/></linearGradient><linearGradient id="linearGradient13396" x1="20.405" x2="20.405" y1="6.988" y2="9.119" gradientTransform="matrix(1.3247,0,0,1.3247,0.044845,-52.929)" gradientUnits="userSpaceOnUse" xlink:href="#linearGradient3494"/><linearGradient id="linearGradient13398" x1="21.718" x2="21.718" y1="6.18" y2="10.01" gradientTransform="matrix(1.3247,0,0,1.3247,0.044845,-52.929)" gradientUnits="userSpaceOnUse" xlink:href="#linearGradient3506"/><linearGradient id="linearGradient13779" x1="19.004" x2="29.02" y1="19.002" y2="32.577" gradientTransform="matrix(1,0,0,1.0001,-130.77924,99.989)" gradientUnits="userSpaceOnUse"><stop style="stop-color:#fff" id="stop4864" offset="0"/><stop style="stop-color:#fff;stop-opacity:0" id="stop4866" offset="1"/></linearGradient></defs><g id="layer2" transform="translate(39.784181,56.321504)"><g id="g4179" transform="matrix(2.9183609,0,0,2.9183609,-46.454679,-60.960918)"><path style="fill:none;stroke:#535353;stroke-width:2;stroke-linecap:round;stroke-linejoin:round" id="path4196" d="m 11.286,8.0181 c -0.625,0 -1.032,0.2902 -1.282,0.8437 l -6.4683,17.103 c 0,0 -0.25,0.672 -0.25,1.782 l 0,9.65 c 0,1.082 0.6578,1.625 1.6562,1.625 l 38.562,0 c 0.985,0 1.594,-0.719 1.594,-1.844 l 0,-9.65 c 0,0 0.106,-0.771 -0.094,-1.313 l -6.718,-17.197 c -0.185,-0.5118 -0.637,-0.988 -1.125,-0.9999 l -25.875,0 z"/><path style="fill:url(#linearGradient4234);fill-rule:evenodd" id="path4170" d="m 3.2736,27.052 0.7646,-0.692 37.61,0.063 3.462,0.317 0,10.438 c 0,1.126 -0.607,1.844 -1.592,1.844 l -38.583,0 c -0.998,0 -1.6614,-0.542 -1.6614,-1.625 l 0,-10.345 z"/><path style="fill:url(#radialGradient4250);fill-rule:evenodd" id="path3093" d="m 3.5491,25.97 c -0.7143,1.464 -6e-4,2.393 1.0357,2.393 l 39,0 c 1.119,-0.024 1.845,-1.012 1.428,-2.143 L 38.2988,9.009 c -0.184,-0.5117 -0.655,-0.9879 -1.143,-0.9998 l -25.857,0 c -0.625,0 -1.036,0.3035 -1.286,0.8571 l -6.4639,17.104 z"/><path style="fill:#fff;fill-rule:evenodd" id="path4201" d="m 43.562,27.674 -38.118,0 c -1.2895,0 -1.9122,-0.236 -2.1285,-0.779 0.0917,0.944 0.87,1.561 2.1282,1.561 l 38.118,0 c 1.076,-0.033 1.74,-0.859 1.485,-2.156 -0.134,0.842 -0.576,1.346 -1.485,1.374 z"/><path style="color:#000;fill:url(#linearGradient5705)" id="path5637" d="m 38.345,9.2121 6.155,15.538 c -0.619,-0.398 -0.881,-0.713 -1.5,-0.625 l -37.75,0 c -0.7071,0 -1.4116,0.75 -1.4116,0.75 l 6.2866,-16 C 10.259,8.3754 10.749,8.0733 11.412,8.0733 L 36.831,7.9849 c 1.326,0.1768 1.293,0.6086 1.514,1.2273 z"/><path style="fill:#686868;fill-rule:evenodd" id="path5697" d="M 44.708,25.362 C 44.374,25.129 44.073,25.167 43.518,25.14 L 4.737,24.874 c -0.5749,0.045 -1.2413,0.81 -1.2413,0.81 l 0.5711,-1.4 c 0,0 0.3397,-1.163 1.5979,-1.163 l 37.19,0 c 0.723,0.033 1.168,0.43 1.352,0.895 l 0.501,1.346 z"/><path style="fill:none;stroke:url(#linearGradient4260);stroke-linecap:round;stroke-linejoin:round" id="path4252" d="m 11.643,8.4712 c -0.602,0 -0.993,0.2793 -1.234,0.8123 l -6.415,16.59 c 0,0 -0.2406,0.647 -0.2406,1.715 l 0,9.29 c 0,1.355 0.444,1.627 1.5944,1.627 l 37.687,0 c 1.323,0 1.534,-0.316 1.534,-1.837 l 0,-9.291 c 0,0 0.102,-0.741 -0.09,-1.263 l -6.593,-16.806 c -0.178,-0.4929 -0.551,-0.8264 -1.021,-0.8378 l -25.222,0 z"/><g style="fill:url(#linearGradient2687)" id="g2142" transform="matrix(0.8282,0,0,0.61024,4.176,11.161)"><rect style="color:#000;fill:url(#linearGradient4192);fill-rule:evenodd" id="rect2151" width="37.931" height="3.865" x="5.341" y="32.363"/></g><path style="opacity:.71429001;fill:#fff;fill-rule:evenodd" id="path1899" d="m 8.625,33.25 c 0,0 0.4446,0.817 1.2401,0.773 L 40.7151,34 c -0.044,-2.431 -0.687,-3.119 -0.687,-3.119 l 0.034,2.431 -31.437,-0.062 z"/><circle style="color:#000;fill:url(#radialGradient2679);fill-rule:evenodd" id="path2671" cx="41.016" cy="33.984" r=".984" transform="matrix(1.381,0,0,1.381,-15.625,-10.946)"/></g><g id="g4374" transform="matrix(2.090092,0,0,2.090092,278.29273,-235.41872)"><g id="g13364" transform="translate(-130.77924,99.999)"><rect id="rect13366" width="11.325" height="9.529" x="18.96" y="35.054" rx=".625" ry=".625" style="fill:#fff"/><rect id="rect13368" width="13.96" height="14.931" x="17.54" y="-46.431" rx=".565" ry=".565" transform="scale(1,-1)" style="fill:url(#linearGradient13390);stroke:#555753"/><path id="path13370" d="m 19.04,44.931 11,0 0,-4.0792 -11,-0.85179 0,4.9309 z" style="opacity:.36280003;fill:#eeeeec"/><rect id="rect13372" width="3.079" height="3.113" x="20.5" y="-43.404" transform="scale(1,-1)" style="opacity:.88172003;fill:url(#linearGradient13392);stroke:url(#linearGradient13394);stroke-width:.92000002"/><rect id="rect13374" width="11.96" height="13.035" x="18.54" y="-45.431" transform="scale(1,-1)" style="opacity:.71504971;fill:none;stroke:#eeeeec"/><rect id="rect13376" width="3.079" height="3.113" x="25.5" y="-43.404" transform="scale(1,-1)" style="opacity:.88172003;fill:url(#linearGradient13396);stroke:url(#linearGradient13398);stroke-width:.92000002"/></g><rect id="rect13378" width="19.954" height="35.983" x="-116.229" y="101.499" rx="1.625" ry="1.621" style="fill:#204a87;stroke:#2e3436;stroke-linecap:round;stroke-linejoin:round"/><rect id="rect13380" width="18.044" height="34" x="-115.279" y="102.499" rx=".625" ry=".624" style="fill:none;stroke:#729fcf;stroke-linecap:round;stroke-linejoin:round"/><rect id="rect13382" width="17.012" height="3.003" x="-114.769" y="102.979" rx=".772" ry=".739" style="opacity:.7;fill:#fff"/><rect id="rect13384" width=".049" height=".342" x="-103.049" y="103.419" rx="1.183" ry=".342" style="fill:#fff"/><path id="path13386" d="m -108.17924,130.189 c 0,-1.2693 0.4293,-1.5986 0.95515,-2.0418 0.42215,-0.20026 0.48961,-0.33698 0.48406,-0.98102 -0.006,-0.71173 -0.0755,-0.63043 -1.4178,-1.7755 -2.0496,-1.7483 -2.3252,-2.1699 -2.5659,-3.9243 -0.17752,-1.2939 -0.053,-1.0093 -0.56259,-1.507 -0.93794,-0.91607 -0.77725,-2.2595 0.33931,-2.8369 1.0059,-0.52016 2.1975,0.0331 2.5649,1.1908 0.18111,0.57061 -0.25308,1.556 -0.8361,1.8976 -0.53352,0.31255 -0.75487,-0.20854 -0.63286,0.94358 0.0675,0.63766 0.23208,1.371 0.36567,1.6296 0.22945,0.44421 2.4762,2.5353 2.7206,2.5353 l 0,-12.353 -1.2454,0 c 0.57609,-0.98232 1.1374,-1.9802 1.6955,-2.9684 l 1.7773,2.9684 -1.2106,0 0,8.3665 c 0.16837,0 1.8191,-1.6462 2.3745,-2.3874 0.23998,-0.32023 0.38562,-0.77493 0.38562,-1.204 0,-0.6471 0.21716,-0.78316 -0.2851,-0.78316 l -0.5351,0 0,-3.0322 3.0322,0 0,3.0322 -0.49051,0 c -0.43766,0.0504 -0.75049,0.26957 -0.83311,0.9871 -0.12323,1.0701 -0.5896,1.7724 -2.3059,3.4725 l -1.3426,1.4228 0,5.074 0.39676,0.23269 c 0.26978,0.12798 0.64133,0.54152 0.82567,0.91899 0.65696,1.3452 -0.25607,2.7919 -1.7621,2.7919 -1.0914,-0.0393 -1.8916,-0.59003 -1.8916,-1.6691 z" style="opacity:.95;fill:#eeeeec"/><path id="path13388" d="m -115.77924,102.919 c -0.01,-0.46578 0.59246,-0.90122 1.0975,-0.91605 0.57922,-0.0181 16.208,0.0255 16.208,0.0255 0,0 1.823,-0.19744 1.6872,1.0008 -4.2604,2.6873 -11.247,10.748 -10.71,15.641 1.1712,10.567 -8.2733,17.328 -8.2733,17.328 0,0 0.0119,-31.502 -0.009,-33.08 z" style="opacity:.5;fill:url(#linearGradient13779)"/></g></g><metadata id="metadata49"/></svg>
