<svg xmlns="http://www.w3.org/2000/svg" xmlns:svg="http://www.w3.org/2000/svg" id="svg2913" width="128" height="128" version="1.1" viewBox="0 0 128 128"><title id="title4181">Drive Fixed</title><defs id="defs3"><linearGradient id="linearGradient4209" x1="7.063" x2="24.688" y1="35.281" y2="35.281" gradientTransform="translate(0.79549,-1.3258)" gradientUnits="userSpaceOnUse"><stop id="stop4186" offset="0" style="stop-color:#838383"/><stop id="stop4188" offset="1" style="stop-color:#bbb;stop-opacity:0"/></linearGradient><linearGradient id="linearGradient4234" x1="7.605" x2="36.183" y1="28.481" y2="40.944" gradientUnits="userSpaceOnUse"><stop id="stop4230" offset="0" style="stop-color:#bbb"/><stop id="stop4232" offset="1" style="stop-color:#9f9f9f"/></linearGradient><linearGradient id="linearGradient4242" x1="12.277" x2="12.222" y1="37.206" y2="33.759" gradientUnits="userSpaceOnUse"><stop id="stop4238" offset="0" style="stop-color:#eee"/><stop id="stop4240" offset="1" style="stop-color:#eee;stop-opacity:0"/></linearGradient><radialGradient id="radialGradient4250" cx="15.571" cy="2.958" r="20.936" gradientTransform="matrix(1.2862,0.7817,-0.71078,1.1696,-2.3543,-4.8769)" gradientUnits="userSpaceOnUse"><stop id="stop4246" offset="0" style="stop-color:#e4e4e4"/><stop id="stop4248" offset="1" style="stop-color:#d3d3d3"/></radialGradient><linearGradient id="linearGradient4260" x1="12.378" x2="44.096" y1="4.433" y2="47.621" gradientUnits="userSpaceOnUse"><stop id="stop4256" offset="0" style="stop-color:#fff"/><stop id="stop4258" offset="1" style="stop-color:#fff;stop-opacity:0"/></linearGradient><linearGradient id="linearGradient4272" x1="23.688" x2="23.688" y1="11.319" y2="26.357" gradientUnits="userSpaceOnUse"><stop id="stop4276" offset="0" style="stop-color:#fff;stop-opacity:.2549"/><stop id="stop4278" offset="1" style="stop-color:#fff"/></linearGradient><linearGradient id="linearGradient2553" x1="33.431" x2="21.748" y1="31.965" y2="11.781" gradientUnits="userSpaceOnUse"><stop id="stop2557" offset="0" style="stop-color:#fff"/><stop id="stop2561" offset=".5" style="stop-color:#e6e6e6"/><stop id="stop2563" offset=".75" style="stop-color:#fff"/><stop id="stop2565" offset=".842" style="stop-color:#e1e1e1"/><stop id="stop2559" offset="1" style="stop-color:#fff"/></linearGradient></defs><g id="layer2" transform="translate(39.784214,56.376926)"><g id="g4194" transform="matrix(2.9183653,0,0,2.9183653,-46.454723,-60.854909)"><path style="fill:none;stroke:#535353;stroke-width:2;stroke-linecap:round;stroke-linejoin:round" id="path4196" d="m 11.286,7.9626 c -0.625,0 -1.032,0.2902 -1.282,0.8438 l -6.4683,17.104 c 0,0 -0.25,0.671 -0.25,1.781 l 0,9.65 c 0,1.083 0.6578,1.625 1.6562,1.625 l 38.562,0 c 0.985,0 1.594,-0.718 1.594,-1.844 l 0,-9.65 c 0,0 0.106,-0.77 -0.094,-1.312 L 38.2859,8.9634 C 38.1009,8.4511 37.6489,7.9749 37.1609,7.963 l -25.875,0 z"/><path style="fill:url(#linearGradient4234);fill-rule:evenodd" id="path4170" d="m 3.2736,26.997 0.7646,-0.692 37.61,0.062 3.462,0.317 0,10.439 c 0,1.125 -0.607,1.843 -1.592,1.843 l -38.583,0 c -0.998,0 -1.6614,-0.542 -1.6614,-1.624 l 0,-10.345 z"/><path style="fill:url(#radialGradient4250);fill-rule:evenodd" id="path3093" d="m 3.5491,25.914 c -0.7143,1.465 -6e-4,2.393 1.0357,2.393 l 39,0 c 1.119,-0.024 1.845,-1.012 1.428,-2.143 l -6.714,-17.21 c -0.184,-0.5122 -0.655,-0.9884 -1.143,-1.0003 l -25.857,0 c -0.625,0 -1.036,0.3036 -1.286,0.8571 l -6.4639,17.103 z"/><rect style="color:#000;fill:url(#linearGradient4209);fill-rule:evenodd" id="rect4174" width="17.625" height="5.563" x="7.858" y="31.174"/><path style="opacity:.81142997;fill:url(#linearGradient4242);fill-rule:evenodd" id="path4194" d="m 7.858,36.737 0,-4.012 c 1.8355,3.179 8.296,4.012 12.937,4.012 l -12.937,0 z"/><path style="fill:#fff;fill-rule:evenodd" id="path4201" d="m 44.796,25.629 c 0.064,1.25 -0.414,2.316 -1.322,2.343 l -38.119,0 c -1.2889,0 -1.8674,-0.325 -2.0837,-0.868 0.0917,0.945 0.8258,1.65 2.084,1.65 l 38.119,0 c 1.076,-0.033 1.753,-1.424 1.352,-2.995 l -0.03,-0.13 z"/><path style="color:#000;opacity:.69142995;fill:url(#linearGradient4272);fill-rule:evenodd" id="path4211" d="m 10.969,10.156 c -0.046,0.201 -0.188,0.387 -0.188,0.594 0,0.949 0.591,1.789 1.344,2.594 0.24,-0.154 0.365,-0.355 0.625,-0.5 -0.94,-0.816 -1.553,-1.717 -1.781,-2.688 z m 26.656,0 c -0.229,0.97 -0.842,1.873 -1.781,2.688 0.274,0.153 0.404,0.368 0.656,0.531 0.757,-0.807 1.312,-1.673 1.312,-2.625 0,-0.207 -0.141,-0.393 -0.187,-0.594 z m 2.187,8.438 c -0.613,4.04 -7.298,7.25 -15.531,7.25 -8.212,0 -14.86,-3.193 -15.5,-7.219 -0.0321,0.197 -0.1248,0.392 -0.1248,0.594 10e-5,4.318 6.9888,7.844 15.625,7.843 8.636,0 15.656,-3.525 15.657,-7.843 0,-0.213 -0.09,-0.418 -0.126,-0.625 z"/><ellipse style="color:#000;fill:#fff;fill-opacity:.45763005;fill-rule:evenodd" id="path4224" cx="7.204" cy="25.594" rx="1.37" ry="1.016" transform="translate(0.088388,0.17678)"/><ellipse style="color:#000;fill:#fff;fill-opacity:.45763005;fill-rule:evenodd" id="path4226" cx="7.204" cy="25.594" rx="1.37" ry="1.016" transform="translate(33.967,0.088388)"/><path style="fill:none;stroke:url(#linearGradient4260);stroke-linecap:round;stroke-linejoin:round" id="path4252" d="m 11.643,8.4157 c -0.602,0 -0.993,0.2794 -1.234,0.8123 L 3.994,25.819 c 0,0 -0.2406,0.646 -0.2406,1.715 l 0,9.29 c 0,1.354 0.444,1.627 1.5944,1.627 l 37.687,0 c 1.323,0 1.534,-0.317 1.534,-1.838 l 0,-9.29 c 0,0 0.102,-0.742 -0.09,-1.264 L 37.8858,9.253 c -0.178,-0.4924 -0.551,-0.8258 -1.021,-0.8373 l -25.222,0 z"/><path style="fill:none;stroke:#fff;stroke-width:1px;stroke-linecap:square;stroke-opacity:.42372999" id="path4282" d="m 40.5,31.429 0,5.021"/><path style="fill:none;stroke:#fff;stroke-width:1px;stroke-linecap:square;stroke-opacity:.42372999" id="path4284" d="m 38.5,31.489 0,5.021"/><path style="fill:none;stroke:#fff;stroke-width:1px;stroke-linecap:square;stroke-opacity:.42372999" id="path4286" d="m 36.5,31.489 0,5.021"/><path style="fill:none;stroke:#fff;stroke-width:1px;stroke-linecap:square;stroke-opacity:.42372999" id="path4288" d="m 34.5,31.489 0,5.021"/><path style="fill:none;stroke:#fff;stroke-width:1px;stroke-linecap:square;stroke-opacity:.42372999" id="path4290" d="m 32.5,31.489 0,5.021"/><path style="fill:none;stroke:#fff;stroke-width:1px;stroke-linecap:square;stroke-opacity:.42372999" id="path4292" d="m 30.5,31.489 0,5.021"/><path style="opacity:.09714302;fill:none;stroke:#000;stroke-width:1px;stroke-linecap:square" id="path4294" d="m 39.5,31.479 0,5.021"/><path style="opacity:.09714302;fill:none;stroke:#000;stroke-width:1px;stroke-linecap:square" id="path4296" d="m 37.5,31.539 0,5.021"/><path style="opacity:.09714302;fill:none;stroke:#000;stroke-width:1px;stroke-linecap:square" id="path4298" d="m 35.5,31.539 0,5.021"/><path style="opacity:.09714302;fill:none;stroke:#000;stroke-width:1px;stroke-linecap:square" id="path4300" d="m 33.5,31.539 0,5.021"/><path style="opacity:.09714302;fill:none;stroke:#000;stroke-width:1px;stroke-linecap:square" id="path4302" d="m 31.5,31.539 0,5.021"/><path style="opacity:.43999999;fill:#fff;fill-rule:evenodd" id="path4572" d="m 7.875,31.188 0,5.531 12.563,0 L 8.219,36.375 7.875,31.188 Z"/><ellipse style="color:#000;opacity:.20571002;fill:url(#linearGradient2553);fill-rule:evenodd" id="path2545" cx="25" cy="19.563" rx="14.875" ry="6.688" transform="matrix(1.0378,0,0,1.0607,-1.6329,-2.0946)"/></g></g><metadata id="metadata66"/></svg>