<svg xmlns="http://www.w3.org/2000/svg" xmlns:svg="http://www.w3.org/2000/svg" id="svg53383" width="128" height="128" version="1.1" viewBox="0 0 128 128"><defs id="defs3"><linearGradient id="linearGradient53551" x1="99.777" x2="153" y1="15.424" y2="248.63" gradientTransform="matrix(0.20068,0,0,0.20068,-0.58576,-1.0508)" gradientUnits="userSpaceOnUse"><stop id="stop53300" offset="0" style="stop-color:#184375"/><stop id="stop53302" offset="1" style="stop-color:#c8bddc"/></linearGradient></defs><g id="layer1" transform="translate(39.7145,40.7145)"><g id="g4147" transform="matrix(3.1356442,0,0,3.1356442,-51.865186,-49.729542)"><path style="fill:url(#linearGradient53551);stroke:#3f4561;stroke-linecap:round;stroke-linejoin:round" id="path53304" d="M 24.286,43.196 4.375,23.286 24.286,3.375 l 19.91,19.911 -19.91,19.91 z"/><path style="opacity:.72000002;fill:#fff" id="path53359" d="M 43.505,23.286 24.286,4.066 5.066,23.286 5.8476,23.911 24.4566,5.483 43.5046,23.286 Z"/><path style="opacity:.5;fill:#fff" id="path53361" d="m 8.9258,27.145 0.7384,-1.024 c 0.6368,0.268 1.3008,0.485 1.9858,0.645 l -0.005,1.577 c 0.427,0.088 0.863,0.156 1.304,0.204 l 0.481,-1.502 c 0.345,0.029 0.692,0.044 1.044,0.044 0.351,0 0.699,-0.015 1.043,-0.044 l 0.482,1.502 c 0.441,-0.048 0.876,-0.116 1.304,-0.204 l -0.006,-1.577 c 0.686,-0.16 1.349,-0.377 1.986,-0.645 L 20.206,27.4 C 20.608,27.218 21,27.018 21.38,26.8 l -0.492,-1.498 c 0.597,-0.362 1.161,-0.773 1.687,-1.228 l 1.272,0.932 c 0.326,-0.297 0.638,-0.609 0.934,-0.934 L 23.849,22.8 c 0.455,-0.526 0.866,-1.09 1.229,-1.688 l 1.498,0.493 c 0.217,-0.381 0.418,-0.773 0.6,-1.175 l -1.279,-0.922 c 0.268,-0.637 0.485,-1.301 0.645,-1.987 l 1.576,0.006 c 0.089,-0.427 0.156,-0.863 0.204,-1.304 l -1.501,-0.482 c 0.029,-0.344 0.044,-0.692 0.044,-1.043 0,-0.351 -0.016,-0.699 -0.044,-1.043 l 1.501,-0.482 c -0.047,-0.441 -0.116,-0.876 -0.204,-1.304 l -1.577,0.006 C 26.382,11.189 26.165,10.525 25.897,9.8887 L 27.176,8.9664 C 26.994,8.564 26.793,8.1721 26.576,7.7913 l -1.498,0.493 C 24.715,7.6869 24.304,7.1226 23.85,6.597 L 24.781,5.3249 C 24.503,5.019 24.21,4.7269 23.906,4.4467 l -18.839,18.839 1.0069,1.007 0.2987,-0.219 c 0.5257,0.455 1.09,0.866 1.6875,1.228 l -0.242,0.735 1.1081,1.108 -4e-4,0 z"/><path style="opacity:.5;fill:#fff" id="path53363" d="m 28.449,32.191 c 0,-6.485 4.234,-11.979 10.087,-13.874 L 36.309,16.09 c -0.017,0.007 -0.034,0.013 -0.05,0.02 l -0.182,-0.252 -1.412,-1.412 c -0.463,0.219 -0.917,0.455 -1.359,0.708 L 34,17.263 c -0.841,0.51 -1.636,1.089 -2.376,1.729 L 29.833,17.68 c -0.459,0.418 -0.897,0.856 -1.314,1.315 l 1.311,1.791 c -0.64,0.74 -1.219,1.534 -1.729,2.375 l -2.109,-0.694 c -0.307,0.537 -0.589,1.089 -0.845,1.655 l 1.801,1.298 c -0.378,0.897 -0.683,1.831 -0.908,2.797 l -2.22,-0.009 c -0.124,0.603 -0.22,1.215 -0.287,1.836 l 2.114,0.679 c -0.04,0.484 -0.062,0.974 -0.062,1.468 0,0.495 0.022,0.985 0.062,1.469 l -2.114,0.678 c 0.067,0.621 0.163,1.234 0.287,1.836 l 2.22,-0.008 c 0.225,0.965 0.53,1.9 0.908,2.796 l -1.801,1.299 c 0.142,0.315 0.294,0.625 0.452,0.93 l 3.804,-3.803 c -0.616,-1.615 -0.954,-3.366 -0.954,-5.197 z"/><path style="opacity:.35;fill:#000" id="path53365" d="M 5.205,23.424 24.286,42.505 43.505,23.286 42.79,22.604 24.31,41.042 5.205,23.424 Z"/></g></g><metadata id="metadata19"/></svg>