<svg xmlns="http://www.w3.org/2000/svg" xmlns:svg="http://www.w3.org/2000/svg" id="svg11300" width="128" height="128" version="1.1" viewBox="0 0 128 128"><defs id="defs3"><linearGradient id="linearGradient16280" x1="12.487" x2="31.081" y1="3.732" y2="36.033" gradientTransform="matrix(1.2114,0,0,1.2114,-2.0214,0.18989)" gradientUnits="userSpaceOnUse"><stop id="stop16177" offset="0" style="stop-color:#d2d2d2;stroke-width:1.2167"/><stop id="stop16179" offset="1" style="stop-color:#ededed;stroke-width:1.2167"/></linearGradient><radialGradient id="radialGradient3561" cx="26.728" cy="38.349" r="17.926" gradientTransform="matrix(1.8485,0,0,1.2891,-21.299,-13.682)" gradientUnits="userSpaceOnUse"><stop id="stop3557" offset="0" style="stop-color:#f2f2f2"/><stop id="stop3559" offset="1" style="stop-color:#d0d0d0"/></radialGradient><linearGradient id="linearGradient3569" x1="28.107" x2="22.169" y1="34.869" y2="9.866" gradientTransform="translate(0,0.88388)" gradientUnits="userSpaceOnUse"><stop id="stop3565" offset="0" style="stop-color:#fff"/><stop id="stop3567" offset="1" style="stop-color:#939393"/></linearGradient></defs><g id="layer1" transform="translate(39.999769,44.877302)"><g id="g4163" transform="matrix(2.9088239,0,0,2.9088239,-45.812213,-49.232225)"><path style="fill:url(#linearGradient16280);stroke:#646464;stroke-width:.99234998" id="path16181" d="m 45.344,39.904 c 0,1.938 -1.575,3.513 -3.513,3.513 l -35.494,0 c -1.9381,0 -3.5129,-1.575 -3.5129,-3.513 l 0,-32.809 c 0,-1.9384 1.5748,-3.5132 3.513,-3.5132 l 35.494,0 c 1.938,0 3.513,1.5748 3.513,3.513 l 0,32.809 z" transform="matrix(1.0113,0,0,1.0041,-0.35602,-0.096586)"/><path style="fill:url(#radialGradient3561);stroke:url(#linearGradient3569);stroke-width:.99794;stroke-opacity:.61658002" id="path12125" d="m 41.468,35.252 -34.853,0 3e-4,-24.002 34.853,0 0,24.002 z" transform="matrix(1.0042,0,0,0.9999,-0.14323,0.25106)"/><path style="fill:none;stroke:#fff;stroke-width:.99669999;stroke-opacity:.86009976" id="path11975" d="m 44.48,39.328 c 0,1.86 -0.98,3.017 -2.84,3.017 l -35.024,0 c -1.8594,0 -2.9283,-1.069 -2.9283,-2.928 l 0,-31.82 c 0,-1.8594 1.5108,-3.1935 3.3703,-3.1935 l 34.14,0 c 1.86,0 3.282,1.3341 3.282,3.1936 l 0,31.378 0,0.353 z" transform="matrix(1.0051,0,0,1.0015,-0.20644,0.089717)"/><g id="g3551" transform="matrix(0.75103,0,0,0.76405,10.062,10.183)"><path style="color:#000;fill:#c00;stroke:#c00;stroke-width:2.6401999;stroke-linecap:round;stroke-linejoin:round" id="path2565" d="m 11.319,9.2241 c 5.323,5.4689 11.45,9.8999 17.892,13.707 l -1.769,1.229 c -6.34,-4.115 -12.389,-8.661 -18.258,-13.508 l 2.135,-1.4279 z"/><path style="color:#000;fill:#c00;stroke:#c00;stroke-width:2.6401999;stroke-linecap:round;stroke-linejoin:round" id="path2575" d="m 26.739,8.9211 c -4.871,7.0319 -11.492,12.16 -18.832,16.361 l 2.181,-1.761 c -1.3639,0.858 15.486,-11.717 13.764,-13.313 l 2.887,-1.2869 z"/></g></g></g><metadata id="metadata35"/></svg>