<svg xmlns="http://www.w3.org/2000/svg" xmlns:svg="http://www.w3.org/2000/svg" xmlns:xlink="http://www.w3.org/1999/xlink" id="svg249" width="128" height="128" version="1.1" viewBox="0 0 128 128"><defs id="defs3"><radialGradient id="radialGradient6719" cx="605.71" cy="486.65" r="117.14" gradientTransform="matrix(-2.7744,0,0,1.9697,112.76,-872.89)" gradientUnits="userSpaceOnUse" xlink:href="#linearGradient5060"/><linearGradient id="linearGradient5060"><stop id="stop5062" offset="0"/><stop id="stop5064" offset="1" stop-opacity="0"/></linearGradient><radialGradient id="radialGradient6717" cx="605.71" cy="486.65" r="117.14" gradientTransform="matrix(2.7744,0,0,1.9697,-1891.6,-872.89)" gradientUnits="userSpaceOnUse" xlink:href="#linearGradient5060"/><linearGradient id="linearGradient6715" x1="302.86" x2="302.86" y1="366.65" y2="609.51" gradientTransform="matrix(2.7744,0,0,1.9697,-1892.2,-872.89)" gradientUnits="userSpaceOnUse"><stop id="stop5050" offset="0" stop-opacity="0"/><stop id="stop5056" offset=".5"/><stop id="stop5052" offset="1" stop-opacity="0"/></linearGradient><radialGradient id="radialGradient15656" cx="8.824" cy="3.756" r="37.752" gradientTransform="matrix(0.96827,0,0,1.0328,3.3536,0.64645)" gradientUnits="userSpaceOnUse"><stop id="stop270" offset="0" stop-color="#a3a3a3"/><stop id="stop271" offset="1" stop-color="#4c4c4c"/></radialGradient><radialGradient id="radialGradient15658" cx="33.967" cy="35.737" r="86.708" gradientTransform="scale(0.96049,1.0411)" gradientUnits="userSpaceOnUse"><stop id="stop260" offset="0" stop-color="#fafafa"/><stop id="stop261" offset="1" stop-color="#bbb"/></radialGradient><radialGradient id="radialGradient15668" cx="8.144" cy="7.268" r="38.159" gradientTransform="matrix(0.96827,0,0,1.0328,3.3536,0.64645)" gradientUnits="userSpaceOnUse"><stop id="stop15664" offset="0" stop-color="#fff"/><stop id="stop15666" offset="1" stop-color="#f8f8f8"/></radialGradient><radialGradient id="radialGradient2283" cx="20.892" cy="114.57" r="5.256" gradientTransform="matrix(0.2297,0,0,0.2297,4.6135,3.9798)" gradientUnits="userSpaceOnUse"><stop id="stop15566" offset="0" stop-color="#F0F0F0"/><stop id="stop15568" offset="1" stop-color="#9a9a9a"/></radialGradient><radialGradient id="radialGradient2285" cx="20.892" cy="64.568" r="5.257" gradientTransform="matrix(0.2297,0,0,0.2297,4.6135,3.9798)" gradientUnits="userSpaceOnUse"><stop id="stop15573" offset="0" stop-color="#F0F0F0"/><stop id="stop15575" offset="1" stop-color="#9a9a9a"/></radialGradient><linearGradient id="linearGradient3084-8" x1="35.996" x2="35.996" y1="1.625" y2="11.711" gradientTransform="matrix(1.632,0,0,2.4361,-0.051304,2.0097)" gradientUnits="userSpaceOnUse" xlink:href="#linearGradient2780-6"/><linearGradient id="linearGradient2780-6"><stop id="stop2782-0" offset="0" stop-color="#fff"/><stop id="stop2784-74" offset="1" stop-color="#fff" stop-opacity="0"/></linearGradient><linearGradient id="linearGradient2951-3" x1="38.363" x2="39.724" y1="11.17" y2="6.092" gradientTransform="matrix(1.6375,0,0,2.4742,-0.051304,-0.012826)" gradientUnits="userSpaceOnUse" xlink:href="#linearGradient2780-6"/><radialGradient id="radialGradient2869-6" cx="21.595" cy="8.981" r="6.068" gradientTransform="matrix(2.3666,0,0,1.7265,-0.40436,-0.012826)" gradientUnits="userSpaceOnUse" xlink:href="#linearGradient2834-77"/><linearGradient id="linearGradient2834-77"><stop id="stop2836-2" offset="0" stop-color="#a6caf6"/><stop id="stop2838-0" offset="1" stop-color="#819acc" stop-opacity="0"/></linearGradient><radialGradient id="radialGradient2873-4" cx="21.595" cy="8.981" r="6.068" gradientTransform="matrix(-2.3666,0,0,1.7265,129.12,-0.11292)" gradientUnits="userSpaceOnUse" xlink:href="#linearGradient2834-77"/><linearGradient id="linearGradient2943-0" x1="38.782" x2="38.782" y1="9.575" y2="7.586" gradientTransform="matrix(1.632,0,0,2.4825,-0.051304,-0.012826)" gradientUnits="userSpaceOnUse" xlink:href="#linearGradient2780-6"/><linearGradient id="linearGradient2935-6" x1="33.184" x2="33.184" y1="24.385" y2="-13.17" gradientTransform="matrix(2.2102,0,0,1.9643,-1.5159,-2.1713)" gradientUnits="userSpaceOnUse" xlink:href="#linearGradient2780-6"/><linearGradient id="linearGradient2895-1" x1="33.184" x2="33.184" y1="24.385" y2="-13.17" gradientTransform="matrix(2.1611,0,0,1.8045,-0.051304,2.2671)" gradientUnits="userSpaceOnUse" xlink:href="#linearGradient2780-6"/><radialGradient id="radialGradient2955-3" cx="21.595" cy="8.981" r="6.068" gradientTransform="matrix(3.085,0,0,2.0529,-15.985,-3.1493)" gradientUnits="userSpaceOnUse" xlink:href="#linearGradient2834-77"/><radialGradient id="radialGradient2959-0" cx="21.595" cy="8.981" r="6.068" gradientTransform="matrix(-2.8463,0,0,2.0879,139.53,-3.5862)" gradientUnits="userSpaceOnUse" xlink:href="#linearGradient2834-77"/><radialGradient id="radialGradient3063-0" cx="8.018" cy="231.98" r="7.483" gradientTransform="scale(3.7417,0.26726)" gradientUnits="userSpaceOnUse"><stop id="stop3059-7" offset="0" stop-color="#282828"/><stop id="stop3061-6" offset="1" stop-color="#282828" stop-opacity="0"/></radialGradient><linearGradient id="linearGradient2707-7" x1="29.614" x2="44.724" y1="52.609" y2="52.609" gradientTransform="matrix(2.1518,0,0,1.7708,-0.051304,4.3518)" gradientUnits="userSpaceOnUse" spreadMethod="reflect"><stop id="stop2703-5" offset="0" stop-color="#adb6c0"/><stop id="stop2770-8" offset=".75" stop-color="#cad1dc"/><stop id="stop2705-6" offset="1" stop-color="#d7deea"/></linearGradient><linearGradient id="linearGradient2732-6" x1="29.094" x2="29.094" y1="46.357" y2="47.296" gradientTransform="matrix(2.2188,0,0,1.826,-0.051304,-1.0128)" gradientUnits="userSpaceOnUse" spreadMethod="reflect" xlink:href="#linearGradient2713-9"/><linearGradient id="linearGradient2713-9"><stop id="stop2715-1" offset="0"/><stop id="stop2717-6" offset="1" stop-color="#fff"/></linearGradient><linearGradient id="linearGradient2736-7" x1="24.261" x2="24.606" y1="44.011" y2="45.888" gradientTransform="matrix(2.2188,0,0,1.826,-0.051304,-1.0128)" gradientUnits="userSpaceOnUse" spreadMethod="reflect" xlink:href="#linearGradient2713-9"/><linearGradient id="linearGradient3086-4" x1="17.682" x2="17.425" y1="60.434" y2="62.78" gradientTransform="matrix(2.2188,0,0,1.826,-0.051304,-1.0128)" gradientUnits="userSpaceOnUse" spreadMethod="reflect" xlink:href="#linearGradient2713-9"/><radialGradient id="radialGradient2817-5" cx="20.361" cy="22.546" r="15.157" gradientTransform="matrix(0.43334,0,0,1.435,6.4099,-0.11314)" gradientUnits="userSpaceOnUse" xlink:href="#linearGradient2780-6"/><radialGradient id="radialGradient2819-1" cx="20.361" cy="22.546" r="15.157" gradientTransform="matrix(0.50007,0,0,1.6752,5.003,-5.1081)" gradientUnits="userSpaceOnUse" xlink:href="#linearGradient2780-6"/><radialGradient id="radialGradient2821-7" cx="20.361" cy="22.546" r="15.157" gradientTransform="matrix(0.6214,0,0,1.8821,2.3888,-9.4094)" gradientUnits="userSpaceOnUse" xlink:href="#linearGradient2780-6"/><linearGradient id="linearGradient3080-6" x1="26.974" x2="26.974" y1="68.68" y2="44.981" gradientTransform="matrix(2.1361,0,0,1.826,2.3487,-1.0128)" gradientUnits="userSpaceOnUse" xlink:href="#linearGradient2780-6"/></defs><g id="g4301" transform="matrix(3.0534352,0,0,3.0534352,-9.4079411,-9.6073274)"><g id="layer1"><rect style="color:#000;display:block;fill:url(#radialGradient15658);stroke:url(#radialGradient15656);stroke-linecap:round;stroke-linejoin:round" id="rect15391" width="34.875" height="40.92" x="6.604" y="3.646" display="block" ry="1.149"/><rect style="color:#000;display:block;fill:none;stroke:url(#radialGradient15668);stroke-linecap:round;stroke-linejoin:round" id="rect15660" width="32.776" height="38.946" x="7.666" y="4.584" display="block" rx=".149" ry=".149"/><g id="g2270" transform="translate(0.64645,-0.037989)"><g id="g1440" transform="matrix(0.2297,0,0,0.2297,4.9671,4.245)" style="fill:#fff;stroke:#000"><path id="path1448" d="m 23.428,113.07 c 0,1.97 -1.6,3.57 -3.573,3.57 -1.974,0 -3.573,-1.6 -3.573,-3.57 0,-1.97 1.6,-3.57 3.573,-3.57 1.973,0 3.573,1.6 3.573,3.57 z"/><path id="path1456" d="m 23.428,63.07 c 0,1.973 -1.6,3.573 -3.573,3.573 -1.974,0 -3.573,-1.6 -3.573,-3.573 0,-1.974 1.6,-3.573 3.573,-3.573 1.973,0 3.573,1.6 3.573,3.573 z"/></g><path id="path15570" d="m 9.995,29.952 c 0,0.454 -0.3675,0.821 -0.8207,0.821 -0.4535,0 -0.8207,-0.368 -0.8207,-0.821 0,-0.453 0.3675,-0.82 0.8207,-0.82 0.4532,0 0.8207,0.367 0.8207,0.82 z" style="fill:url(#radialGradient2283)"/><path id="path15577" d="m 9.995,18.467 c 0,0.453 -0.3675,0.821 -0.8207,0.821 -0.4535,0 -0.8207,-0.368 -0.8207,-0.821 0,-0.453 0.3675,-0.821 0.8207,-0.821 0.4532,0 0.8207,0.368 0.8207,0.821 z" style="fill:url(#radialGradient2285)"/></g><path id="path15672" d="m 11.506,5.4943 0,37.907" style="fill:none;stroke:#000;stroke-width:.98855001;stroke-opacity:.01754402"/><path id="path15674" d="m 12.5,5.0205 0,38.018" style="fill:none;stroke:#fff;stroke-opacity:.20468002"/></g><text id="text3646" x="13.491" y="21.712" font-size="4.402" line-height="125%" transform="scale(1.1211195,0.89196554)" xml:space="preserve" style="font-size:4.40182304px;line-height:125%;font-family:Sans;letter-spacing:0;word-spacing:0;fill:#000"><tspan id="tspan3648" x="13.491" y="21.712">0100101</tspan><tspan id="tspan3650" x="13.491" y="27.215">1110010</tspan><tspan id="tspan3652" x="13.491" y="32.717">1100110</tspan><tspan id="tspan3654" x="13.491" y="38.219">1101101</tspan><tspan id="tspan3656" x="13.491" y="43.722">1100001</tspan></text></g><metadata id="metadata118"/></svg>