<svg xmlns="http://www.w3.org/2000/svg" xmlns:svg="http://www.w3.org/2000/svg" id="svg97" width="128" height="128" version="1.1" viewBox="0 0 128 128"><defs id="defs3"><radialGradient id="radialGradient238" cx="20.706" cy="37.518" r="30.905" gradientTransform="matrix(1.056,0.015134,0.14262,1.2516,-2.2763,-10.281)" gradientUnits="userSpaceOnUse"><stop id="stop1790" offset="0" style="stop-color:#202020"/><stop id="stop1791" offset="1" style="stop-color:#b9b9b9"/></radialGradient><linearGradient id="linearGradient491" x1="6.23" x2="9.898" y1="13.773" y2="66.834" gradientTransform="matrix(1.5168,0,0,0.70898,-0.87957,-1.3182)" gradientUnits="userSpaceOnUse"><stop id="stop3984" offset="0" style="stop-color:#fff;stop-opacity:.87629"/><stop id="stop3985" offset="1" style="stop-color:#fffffe;stop-opacity:0"/></linearGradient><linearGradient id="linearGradient322" x1="13.036" x2="12.854" y1="32.567" y2="46.689" gradientTransform="matrix(1.3175,0,0,0.81626,-0.87957,-1.3182)" gradientUnits="userSpaceOnUse"><stop id="stop320" offset="0" style="stop-color:#fff"/><stop id="stop321" offset="1" style="stop-color:#fff;stop-opacity:0"/></linearGradient><linearGradient id="linearGradient3104" x1="18.113" x2="15.515" y1="31.368" y2="6.18" gradientUnits="userSpaceOnUse"><stop id="stop3098" offset="0" style="stop-color:#424242"/><stop id="stop3100" offset="1" style="stop-color:#777"/></linearGradient><linearGradient id="linearGradient9772" x1="22.176" x2="22.065" y1="36.988" y2="32.05" gradientUnits="userSpaceOnUse"><stop id="stop9768" offset="0" style="stop-color:#6194cb"/><stop id="stop9770" offset="1" style="stop-color:#729fcf"/></linearGradient><linearGradient id="linearGradient2296" x1="21.354" x2="20.796" y1="26.384" y2="50.771" gradientTransform="matrix(1.2079,0,0,0.8279,-0.952,-0.11755)" gradientUnits="userSpaceOnUse"><stop id="stop128" offset="0" style="stop-color:#fff"/><stop id="stop129" offset="1" style="stop-color:#fff;stop-opacity:0"/></linearGradient></defs><g id="layer1" transform="translate(35.50149,55.12791)"><g id="g4194" transform="matrix(2.8782683,0,0,2.8782683,-39.136503,-55.89049)"><path style="fill:url(#radialGradient238);stroke:url(#linearGradient3104);stroke-width:.99844003;stroke-linecap:round;stroke-linejoin:round" id="path216" d="m 4.5218,38.687 c 0.0218,0.417 0.4599,0.833 0.8762,0.833 l 31.327,0 c 0.416,0 0.811,-0.416 0.789,-0.833 L 36.578,11.461 c -0.022,-0.417 -0.46,-0.833 -0.877,-0.833 l -13.27,0 c -0.486,0 -1.235,-0.316 -1.402,-1.1066 L 20.417,6.6284 C 20.262,5.8927 19.535,5.5905 19.119,5.5905 l -14.779,0 c -0.4162,0 -0.8107,0.4163 -0.7889,0.8326 l 0.9707,32.264 z" transform="matrix(1.001,0,0,1.0021,-0.053901,-0.10208)"/><path style="color:#000;display:block;opacity:.45143002;fill:url(#linearGradient491)" id="path219" d="M 6.0683,38.864 C 6.0847,39.176 5.8874,39.384 5.5698,39.28 5.2521,39.176 5.033,38.968 5.0167,38.656 L 4.069,6.591 C 4.0526,6.2792 4.2341,6.0906 4.5464,6.0906 l 14.422,-0.0477 c 0.313,0 0.932,0.3005 1.133,1.3222 l 0.574,2.8159 c -0.427,-0.4656 -0.419,-0.48 -0.638,-1.1571 l -0.406,-1.2592 c -0.219,-0.7276 -0.698,-0.8319 -1.01,-0.8319 l -12.888,0 c -0.3122,0 -0.5095,0.2082 -0.4931,0.5204 l 0.938,31.515 -0.1096,-0.104 z" transform="matrix(0.99356,0,0,0.99205,-0.04175,0.0051338)"/><g id="g3950"><path style="color:#000;opacity:.11363998;fill:#729fcf;stroke:#000;stroke-linecap:round;stroke-linejoin:round" id="path9784" d="m 5.0422,18.562 30.447,0"/><path style="color:#000;opacity:.11363998;fill:#729fcf;stroke:#000;stroke-linecap:round;stroke-linejoin:round" id="path9778" d="m 4.9807,12.562 30.507,0"/><path style="color:#000;opacity:.11363998;fill:#729fcf;stroke:#000;stroke-linecap:round;stroke-linejoin:round" id="path9788" d="m 5.2266,22.562 30.265,0"/><path style="color:#000;opacity:.11363998;fill:#729fcf;stroke:#000;stroke-linecap:round;stroke-linejoin:round" id="path9798" d="m 5.3862,32.562 30.109,0"/><path style="color:#000;opacity:.11363998;fill:#729fcf;stroke:#000;stroke-linecap:round;stroke-linejoin:round" id="path9800" d="m 5.5091,34.562 29.988,0"/><path style="color:#000;opacity:.11363998;fill:#729fcf;stroke:#000;stroke-linecap:round;stroke-linejoin:round" id="path9782" d="m 5.0422,16.562 30.447,0"/><path style="color:#000;opacity:.11363998;fill:#729fcf;stroke:#000;stroke-linecap:round;stroke-linejoin:round" id="path9786" d="m 5.1959,20.562 30.296,0"/><path style="color:#000;opacity:.11363998;fill:#729fcf;stroke:#000;stroke-linecap:round;stroke-linejoin:round" id="path9780" d="m 5.0114,14.562 30.478,0"/><g style="fill:#fff;fill-opacity:.75705997" id="g220" transform="matrix(1.0534,0,0.055154,1.0401,-9.1633,2.4587)"><path style="fill:#fff;fill-opacity:.50847" id="path221" d="M 42.417,8.5152 C 42.422,8.4181 42.289,8.2682 42.182,8.2682 L 29.151,8.2661 c 0,0 0.911,0.5879 2.201,0.5962 l 11.054,0.071 c 0.011,-0.2117 0.003,-0.256 0.011,-0.4181 z"/></g><path style="color:#000;opacity:.11363998;fill:#729fcf;stroke:#000;stroke-linecap:round;stroke-linejoin:round" id="path9790" d="m 5.2266,24.562 30.265,0"/><path style="color:#000;opacity:.11363998;fill:#729fcf;stroke:#000;stroke-linecap:round;stroke-linejoin:round" id="path9796" d="m 5.3247,30.562 30.169,0"/><path style="color:#000;opacity:.11363998;fill:#729fcf;stroke:#000;stroke-linecap:round;stroke-linejoin:round" id="path9794" d="m 5.3247,28.562 30.169,0"/><path style="color:#000;opacity:.11363998;fill:#729fcf;stroke:#000;stroke-linecap:round;stroke-linejoin:round" id="path9802" d="m 5.5091,36.562 29.988,0"/><path style="color:#000;opacity:.11363998;fill:#729fcf;stroke:#000;stroke-linecap:round;stroke-linejoin:round" id="path9792" d="m 5.2881,26.562 30.205,0"/><path style="color:#000;opacity:.11363998;fill:#729fcf;stroke:#000;stroke-linecap:round;stroke-linejoin:round" id="path9774" d="m 4.8738,8.5625 14.783,0"/><path style="color:#000;opacity:.11363998;fill:#729fcf;stroke:#000;stroke-linecap:round;stroke-linejoin:round" id="path9776" d="m 4.9221,10.562 15.281,0"/></g><path style="color:#000;display:block;fill:url(#linearGradient9772);stroke:#3465a4;stroke-width:1.00450003;stroke-linejoin:round" id="path233" d="m 39.784,39.511 c 1.143,-0.044 1.963,-1.097 2.047,-2.321 0.791,-11.549 1.659,-21.232 1.659,-21.232 0.072,-0.248 -0.168,-0.495 -0.48,-0.495 l -34.371,0 c -4e-4,0 -1.8507,21.867 -1.8507,21.867 -0.1145,0.982 -0.466,1.804 -1.5498,2.183 l 34.546,-0.002 z" transform="matrix(0.99309,0,0,0.9979,0.29772,0.069832)"/><path style="opacity:.46591001;fill:none;stroke:url(#linearGradient322);stroke-width:1.00450003px;stroke-linecap:round" id="path304" d="m 9.6202,16.464 32.791,0.065 -1.574,20.002 c -0.084,1.071 -0.45,1.428 -1.872,1.428 -1.872,0 -28.678,-0.032 -31.395,-0.032 0.2335,-0.321 0.3337,-0.989 0.335,-1.005 L 9.6204,16.464 Z" transform="matrix(0.99309,0,0,0.9979,0.29772,0.069832)"/><path style="fill:#fff;fill-opacity:.089286;fill-rule:evenodd" id="path323" d="M 9.6202,16.223 8.4536,31.866 c 0,0 8.2964,-4.148 18.666,-4.148 10.3696,0 15.555,-11.495 15.555,-11.495 l -33.055,0 z" transform="matrix(0.99309,0,0,0.9979,0.29772,0.069832)"/><path style="fill:url(#linearGradient2296);fill-rule:evenodd;stroke-width:3pt" id="path892" d="M 16.57,27.405 15.863,35 l 7.851,0 0.572,-6.139 4.273,0 -0.572,6.139 4.881,0 0.707,-7.595 2.67,-0.002 -10.41,-7.65 -11.835,7.65 2.57,0.002 z" transform="matrix(0.98898,0,0,0.98378,1.1543,0.56763)"/></g></g><metadata id="metadata66"/></svg>