<svg xmlns="http://www.w3.org/2000/svg" xmlns:svg="http://www.w3.org/2000/svg" id="svg97" width="128" height="128" version="1.1" viewBox="0 0 128 128"><defs id="defs3"><linearGradient id="linearGradient155" x1="19.116" x2="19.427" y1="28.946" y2="51.913" gradientTransform="matrix(3.8528109,0,0,1.9340865,-41.464471,-49.893042)" gradientUnits="userSpaceOnUse"><stop id="stop336" offset="0" style="stop-color:#fff"/><stop id="stop337" offset="1" style="stop-color:#fff;stop-opacity:0"/></linearGradient><linearGradient id="linearGradient156" x1="14.899" x2="22.715" y1="27.06" y2="41.837" gradientTransform="matrix(4.1612526,0,0,1.7907882,-32.109852,-43.162533)" gradientUnits="userSpaceOnUse"><stop id="stop149" offset="0" style="stop-color:#fff;stop-opacity:.13402"/><stop id="stop150" offset="1" style="stop-color:#fff;stop-opacity:.051546"/></linearGradient><linearGradient id="linearGradient158" x1="5.266" x2="8.212" y1="18.726" y2="52.626" gradientTransform="matrix(4.04519,0,0.19104237,1.8967299,-41.438513,-50.508982)" gradientUnits="userSpaceOnUse"><stop id="stop138" offset="0" style="stop-color:#fff;stop-opacity:.7006"/><stop id="stop139" offset="1" style="stop-color:#fff;stop-opacity:0"/></linearGradient><radialGradient id="radialGradient159" cx="26.107" cy="38.195" r="32.26" gradientTransform="matrix(2.7964572,0,0.28388612,2.7584446,-41.384797,-50.440125)" gradientUnits="userSpaceOnUse"><stop id="stop1790" offset="0" style="stop-color:#a0a0a0"/><stop id="stop1791" offset="1" style="stop-color:#a8a8a8"/></radialGradient><linearGradient id="linearGradient13162" x1="22.176" x2="22.065" y1="36.988" y2="32.05" gradientTransform="matrix(2.710384,0,0,2.8101523,99.629989,-53.530486)" gradientUnits="userSpaceOnUse"><stop id="stop9768" offset="0" style="stop-color:#6194cb"/><stop id="stop9770" offset="1" style="stop-color:#729fcf"/></linearGradient><linearGradient id="linearGradient13848" x1="22.25" x2="19.75" y1="37.625" y2="14.875" gradientTransform="matrix(2.7411673,0,0,2.7411673,-41.159078,-49.600943)" gradientUnits="userSpaceOnUse"><stop id="stop13844" offset="0" style="stop-color:#000"/><stop id="stop13846" offset="1" style="stop-color:#000;stop-opacity:0"/></linearGradient></defs><g id="layer3" transform="translate(39.384857,67.21713)"><g id="g4187" transform="matrix(1.0153126,0,0,1.0153126,-0.37692059,-15.478423)"><path style="color:#000;fill:url(#radialGradient159);stroke:#5a5a5a;stroke-width:2.74114919;stroke-linecap:round;stroke-linejoin:round" id="path2375" d="m -28.663615,56.35399 c 0.115096,1.157968 1.369592,2.318692 2.508992,2.318692 l 85.733057,0 c 1.13995,0 2.164253,-1.160724 2.048605,-2.318692 l -7.423443,-74.768876 c -0.115647,-1.160725 -1.371244,-2.318692 -2.511194,-2.318692 l -35.032813,0 c -1.624567,0 -3.328985,-1.047685 -3.863165,-2.648162 l -3.037113,-9.114585 c -0.4653419,-1.39866 -1.5061659,-2.028649 -3.6181024,-2.028649 l -41.1318216,0 c -1.138298,0 -2.162326,1.159346 -2.047229,2.318417 l 8.374778,88.55972 z"/><path style="color:#000;opacity:.11363998;fill:#729fcf;stroke:#000;stroke-width:2.74116731;stroke-linecap:round;stroke-linejoin:round" id="path13160" d="m -26.548108,53.283289 82.202125,0"/><path style="color:#000;opacity:.11363998;fill:#729fcf;stroke:#000;stroke-width:2.74116731;stroke-linecap:round;stroke-linejoin:round" id="path13139" d="m -26.548108,47.800955 82.202125,0"/><path style="color:#000;opacity:.11363998;fill:#729fcf;stroke:#000;stroke-width:2.74116731;stroke-linecap:round;stroke-linejoin:round" id="path13115" d="m -33.600857,-17.987061 84.260741,0"/><path style="color:#000;display:block;fill:url(#linearGradient158)" id="path2380" d="m -24.370007,56.07821 c 0.08656,0.860044 -0.427833,1.434331 -1.315025,1.1458 -0.886917,-0.285756 -1.516912,-0.860044 -1.603751,-1.720088 l -8.378275,-87.022578 c -0.08684,-0.861986 0.433087,-1.381897 1.291242,-1.381897 l 40.7920642,-0.253851 c 1.4685143,-0.0092 2.0110445,0.158168 2.4309304,1.434886 1.2047344,3.663152 2.0234554,8.613014 3.7332524,10.592628 0.600487,0.600022 0.73699,0.809482 1.400671,1.030344 1.067511,0.480024 2.145963,0.664881 3.383877,0.666426 l 34.174476,0.04264 c 1.107589,0.157221 1.270786,2.262363 0.06652,2.467051 l -36.317482,-0.393905 c -3.947434,-0.626485 -7.2958725,-12.238151 -7.2958725,-12.238151 -0.7328744,-1.379677 -1.6565727,-1.14802 -2.6908935,-1.14802 l -36.309086,0 c -0.858707,0 -1.373102,0.57401 -1.28654,1.434887 l 8.238061,85.629862 -0.314721,-0.285757 z"/><path style="color:#000;opacity:.11363998;fill:#729fcf;stroke:#000;stroke-width:2.74116731;stroke-linecap:round;stroke-linejoin:round" id="path13113" d="m -32.007417,-1.5400567 85.38462,0"/><path style="color:#000;opacity:.11363998;fill:#729fcf;stroke:#000;stroke-width:2.74116731;stroke-linecap:round;stroke-linejoin:round" id="path13121" d="m -27.016025,42.31862 82.202125,0"/><path style="color:#000;opacity:.11363998;fill:#729fcf;stroke:#000;stroke-width:2.74116731;stroke-linecap:round;stroke-linejoin:round" id="path13119" d="m -27.821106,36.836285 82.533806,0"/><path style="color:#000;opacity:.11363998;fill:#729fcf;stroke:#000;stroke-width:2.74116731;stroke-linecap:round;stroke-linejoin:round" id="path13135" d="m -28.457605,31.353951 82.698276,0"/><path style="color:#000;opacity:.11363998;fill:#729fcf;stroke:#000;stroke-width:2.74116731;stroke-linecap:round;stroke-linejoin:round" id="path13137" d="m -28.925248,25.871616 82.698276,0"/><path style="color:#000;opacity:.11363998;fill:#729fcf;stroke:#000;stroke-width:2.74116731;stroke-linecap:round;stroke-linejoin:round" id="path13143" d="m -29.493492,20.389282 82.796958,0"/><path style="color:#000;opacity:.11363998;fill:#729fcf;stroke:#000;stroke-width:2.74116731;stroke-linecap:round;stroke-linejoin:round" id="path13133" d="m -30.129991,14.906947 82.964169,0"/><path style="color:#000;opacity:.11363998;fill:#729fcf;stroke:#000;stroke-width:2.74116731;stroke-linecap:round;stroke-linejoin:round" id="path13117" d="m -30.597909,9.4246125 82.961429,0"/><path style="color:#000;opacity:.11363998;fill:#729fcf;stroke:#000;stroke-width:2.74116731;stroke-linecap:round;stroke-linejoin:round" id="path13125" d="m -31.14998,3.9422779 83.046405,0"/><path style="color:#000;display:block;opacity:.39204999;fill:url(#linearGradient13848)" id="path13840" d="m 53.068548,-10.881955 7.195564,67.501245 -84.976186,0.342646 -5.139689,-67.843891 82.920311,0 z"/><path style="color:#000;display:block;fill:url(#linearGradient13162);stroke:#3465a4;stroke-width:2.74128294;stroke-linejoin:round" id="path2401" d="m -25.802246,57.514659 c 0.280254,0.580121 0.841032,1.162992 1.682064,1.162992 l 90.280181,0 c 0.561049,0 1.41211,-0.346423 1.918952,-0.725839 1.436503,-1.077761 1.775301,-1.685376 2.420373,-2.677907 C 77.134344,45.059919 86.233103,2.273899 86.233103,2.273899 86.512272,1.6937776 85.951223,1.1109067 85.111004,1.1109067 l -94.6574509,0 c -0.8402191,0 -4.4883961,44.2871873 -13.1795131,53.0275003 l -3.356269,3.376252 0.280525,0 z"/><path style="fill:url(#linearGradient156);fill-rule:evenodd" id="path323" d="M -5.8662875,5.4769393 C -7.958704,19.196399 -9.9345739,30.246201 -13.22769,42.632207 c 6.4696861,-1.946569 19.2898024,-8.811798 46.393642,-8.811798 27.10384,0 45.325752,-25.4291154 47.840988,-28.4671923 L -5.8662875,5.4769393 Z"/><path style="color:#000;opacity:.52272997;fill:none;stroke:url(#linearGradient155);stroke-width:2.74128294px;stroke-linecap:round" id="path324" d="m 82.725324,4.2369641 -89.8709128,0 c 0,0 -5.8219052,44.0424909 -12.8003302,50.1488879 22.010215,0 85.572243,-0.13472 85.623741,-0.13472 4.748592,0 13.302564,-34.741302 17.048315,-50.0141679 z"/><path style="color:#000;opacity:.11363998;fill:#729fcf;stroke:#000;stroke-width:2.74116731;stroke-linecap:round;stroke-linejoin:round" id="path13123" d="m -32.48904,-7.0223913 84.510188,0"/><path style="color:#000;opacity:.11363998;fill:#729fcf;stroke:#000;stroke-width:2.74116731;stroke-linecap:round;stroke-linejoin:round" id="path13127" d="m -33.03371,-12.504726 85.050198,0"/><path style="color:#000;opacity:.11363998;fill:#729fcf;stroke:#000;stroke-width:2.74116731;stroke-linecap:round;stroke-linejoin:round" id="path13145" d="m -34.840139,-28.950359 40.5254172,0"/><path style="color:#000;opacity:.11363998;fill:#729fcf;stroke:#000;stroke-width:2.74116731;stroke-linecap:round;stroke-linejoin:round" id="path13147" d="m -34.239549,-23.468025 41.8877771,0"/></g></g><metadata id="metadata61"/></svg>