<svg xmlns="http://www.w3.org/2000/svg" xmlns:svg="http://www.w3.org/2000/svg" id="svg97" width="128" height="128" version="1.1" viewBox="0 0 128 128"><defs id="defs3"><radialGradient id="radialGradient238" cx="20.706" cy="37.518" r="30.905" gradientTransform="matrix(3.0399822,-0.07879467,0.51204251,3.4315804,-54.081977,-82.122402)" gradientUnits="userSpaceOnUse"><stop id="stop1790" offset="0" style="stop-color:#202020"/><stop id="stop1791" offset="1" style="stop-color:#b9b9b9"/></radialGradient><linearGradient id="linearGradient491" x1="6.23" x2="9.898" y1="13.773" y2="66.834" gradientTransform="matrix(4.3706589,0,0,2.0429271,-46.323165,-65.389233)" gradientUnits="userSpaceOnUse"><stop id="stop3984" offset="0" style="stop-color:#fff;stop-opacity:.87629"/><stop id="stop3985" offset="1" style="stop-color:#fffffe;stop-opacity:0"/></linearGradient><linearGradient id="linearGradient322" x1="13.036" x2="12.854" y1="32.567" y2="46.689" gradientTransform="matrix(3.7963759,0,0,2.3520546,-46.323165,-65.389233)" gradientUnits="userSpaceOnUse"><stop id="stop320" offset="0" style="stop-color:#fff"/><stop id="stop321" offset="1" style="stop-color:#fff;stop-opacity:0"/></linearGradient><linearGradient id="linearGradient3104" x1="18.113" x2="15.515" y1="31.368" y2="6.18" gradientTransform="matrix(2.8814998,0,0,2.8815017,-43.788684,-61.590837)" gradientUnits="userSpaceOnUse"><stop id="stop3098" offset="0" style="stop-color:#424242"/><stop id="stop3100" offset="1" style="stop-color:#777"/></linearGradient><linearGradient id="linearGradient9772" x1="22.176" x2="22.065" y1="36.988" y2="32.05" gradientTransform="matrix(2.8814998,0,0,2.8815017,-43.788684,-61.590837)" gradientUnits="userSpaceOnUse"><stop id="stop9768" offset="0" style="stop-color:#6194cb"/><stop id="stop9770" offset="1" style="stop-color:#729fcf"/></linearGradient></defs><g id="layer1" transform="translate(39.999697,60.597845)"><g id="g4194"><path style="fill:url(#radialGradient238);stroke:url(#linearGradient3104);stroke-width:2.88150072;stroke-linecap:round;stroke-linejoin:round" id="path216" d="m -30.759118,49.88582 c 0.06281,1.201587 1.325202,2.400291 2.52477,2.400291 l 90.268743,0 c 1.198704,0 2.336897,-1.198704 2.273503,-2.400291 l -2.697084,-78.451766 c -0.06339,-1.201586 -1.325489,-2.40029 -2.527074,-2.40029 l -38.237503,0 c -1.400408,0 -3.558652,-0.910555 -4.039862,-3.18867 l -1.763478,-8.336185 c -0.446633,-2.11992 -2.541483,-2.99071 -3.740186,-2.99071 l -42.585686,0 c -1.19928,0 -2.336032,1.199569 -2.273215,2.399138 l 2.797072,92.968771 z"/><path style="color:#000;opacity:.11363998;fill:#729fcf;stroke:#000;stroke-width:2.88150072;stroke-linecap:round;stroke-linejoin:round" id="path9788" d="m -28.728238,3.4216045 87.208592,0"/><path style="color:#000;opacity:.11363998;fill:#729fcf;stroke:#000;stroke-width:2.88150072;stroke-linecap:round;stroke-linejoin:round" id="path9784" d="m -29.259586,-8.104402 87.733023,0"/><path style="color:#000;opacity:.11363998;fill:#729fcf;stroke:#000;stroke-width:2.88150072;stroke-linecap:round;stroke-linejoin:round" id="path9778" d="m -29.436798,-25.393413 87.905914,0"/><path style="color:#000;opacity:.11363998;fill:#729fcf;stroke:#000;stroke-width:2.88150072;stroke-linecap:round;stroke-linejoin:round" id="path9798" d="m -28.26835,32.236622 86.759077,0"/><path style="color:#000;opacity:.11363998;fill:#729fcf;stroke:#000;stroke-width:2.88150072;stroke-linecap:round;stroke-linejoin:round" id="path9800" d="m -27.914214,37.999626 86.410416,0"/><path style="color:#000;opacity:.11363998;fill:#729fcf;stroke:#000;stroke-width:2.88150072;stroke-linecap:round;stroke-linejoin:round" id="path9782" d="m -29.259586,-13.867405 87.733023,0"/><path style="color:#000;opacity:.11363998;fill:#729fcf;stroke:#000;stroke-width:2.88150072;stroke-linecap:round;stroke-linejoin:round" id="path9780" d="m -29.348336,-19.630409 87.82235,0"/><path style="color:#000;opacity:.11363998;fill:#729fcf;stroke:#000;stroke-width:2.88150072;stroke-linecap:round;stroke-linejoin:round" id="path9776" d="m -29.605654,-31.156416 44.032198,0"/><path style="color:#000;opacity:.11363998;fill:#729fcf;stroke:#000;stroke-width:2.88150072;stroke-linecap:round;stroke-linejoin:round" id="path9774" d="m -29.74483,-36.917978 42.597211,0"/><path style="color:#000;opacity:.11363998;fill:#729fcf;stroke:#000;stroke-width:2.88150072;stroke-linecap:round;stroke-linejoin:round" id="path9794" d="m -28.445562,20.710616 86.931966,0"/><path style="color:#000;opacity:.11363998;fill:#729fcf;stroke:#000;stroke-width:2.88150072;stroke-linecap:round;stroke-linejoin:round" id="path9792" d="m -28.551025,14.947612 87.0357,0"/><path style="color:#000;opacity:.11363998;fill:#729fcf;stroke:#000;stroke-width:2.88150072;stroke-linecap:round;stroke-linejoin:round" id="path9790" d="m -28.728238,9.1846085 87.208592,0"/><path style="color:#000;opacity:.11363998;fill:#729fcf;stroke:#000;stroke-width:2.88150072;stroke-linecap:round;stroke-linejoin:round" id="path9786" d="m -28.816699,-2.3413986 87.297917,0"/><path style="color:#000;opacity:.11363998;fill:#729fcf;stroke:#000;stroke-width:2.88150072;stroke-linecap:round;stroke-linejoin:round" id="path9796" d="m -28.445562,26.473619 86.931966,0"/><path style="color:#000;opacity:.11363998;fill:#729fcf;stroke:#000;stroke-width:2.88150072;stroke-linecap:round;stroke-linejoin:round" id="path9802" d="m -27.914214,43.762629 86.410416,0"/><path style="color:#000;display:block;fill:url(#linearGradient9772);stroke:#3465a4;stroke-width:2.88150072;stroke-linejoin:round" id="path233" d="m 70.848903,52.260177 c 3.293554,-0.126786 5.656384,-3.161007 5.89843,-6.687965 2.279267,-33.278464 4.780408,-61.180044 4.780408,-61.180044 0.207468,-0.714613 -0.484091,-1.426344 -1.38312,-1.426344 l -99.040028,0 c -0.0011,0 -5.332792,63.009799 -5.332792,63.009799 -0.329931,2.829634 -1.342778,5.198229 -4.465749,6.290317 l 99.544292,-0.0058 z"/><path style="opacity:.46591001;fill:none;stroke:url(#linearGradient322);stroke-width:2.88150072px;stroke-linecap:round" id="path304" d="m -16.06808,-14.149793 94.487259,0.187298 -4.535481,57.635797 c -0.242045,3.086088 -1.296674,4.114785 -5.394167,4.114785 -5.394168,0 -82.635651,-0.09221 -90.464686,-0.09221 0.672831,-0.924961 0.961558,-2.849804 0.965303,-2.895908 l 4.942348,-58.949763 z"/><path style="fill:#fff;fill-opacity:.089286;fill-rule:evenodd" id="path323" d="m -16.06808,-14.844235 -3.361557,45.075332 c 0,0 23.9060743,-11.952469 53.786074,-11.952469 29.880001,0 44.821729,-33.122863 44.821729,-33.122863 l -95.247975,0 z"/><g style="fill:#fff;fill-opacity:.75705997" id="g220" transform="matrix(2.999065,0,0.15702156,2.999067,-68.771863,-53.895499)"><path style="fill:#fff;fill-opacity:.50847" id="path221" d="M 42.417,8.5152 C 42.422,8.4181 42.289,8.2682 42.182,8.2682 L 29.151,8.2661 c 0,0 0.911,0.5879 2.201,0.5962 l 11.054,0.071 c 0.011,-0.2117 0.003,-0.256 0.011,-0.4181 z"/></g><path style="color:#000;display:block;opacity:.45143002;fill:url(#linearGradient491)" id="path219" d="m -26.302878,50.395846 c 0.04726,0.899029 -0.521264,1.498381 -1.436429,1.198704 -0.915452,-0.299675 -1.546789,-0.899028 -1.593757,-1.798057 l -2.730797,-92.395352 c -0.04726,-0.898453 0.475736,-1.441904 1.375628,-1.441904 l 41.556989,-0.137447 c 0.901909,0 2.685559,0.865891 3.26474,3.809922 l 1.653981,8.114021 c -1.230401,-1.341629 -1.207349,-1.383122 -1.838397,-3.334187 l -1.169889,-3.628387 c -0.631049,-2.09658 -2.011287,-2.39712 -2.9103152,-2.39712 l -37.1367688,0 c -0.899604,0 -1.468124,0.599928 -1.420868,1.499533 l 2.702847,90.810526 -0.315812,-0.299675 z"/></g></g><metadata id="metadata56"/></svg>