<svg xmlns="http://www.w3.org/2000/svg" xmlns:svg="http://www.w3.org/2000/svg" id="svg2" width="128" height="128.034" version="1.1" viewBox="0 0 128 128.034"><g id="layer1" transform="translate(260.78562,-960.63854)"><g id="g4322" transform="matrix(0.85333342,0,0,0.85333342,-28.861874,150.28273)"><rect style="fill:#000" id="rect5811-6-5-0-5-1-5" width="20" height="10" x="-241.786" y="959.636"/><rect style="fill:#000" id="rect5813-5-2-8-8-4-3" width="10" height="50.014" x="-251.786" y="969.621"/><rect style="fill:#000" id="rect5815-1-5-4-0-2-9" width="10" height="39.994" x="-221.786" y="959.641"/><rect style="fill:#000" id="rect5817-3-4-6-8-8-4" width="20" height="10" x="-211.786" y="949.636"/><rect style="fill:#000" id="rect5819-1-2-7-4-5-3" width="10" height="40" x="-191.786" y="959.636"/><rect style="fill:#000" id="rect5821-3-5-6-8-1-9" width="20" height="10" x="-181.786" y="959.636"/><rect style="fill:#000" id="rect5823-4-3-5-6-8-6" width="20" height="10" x="-161.786" y="969.636"/><rect style="fill:#000" id="rect5825-6-2-5-8-4-2" width="10" height="30" x="-161.786" y="979.636"/><rect style="fill:#000" id="rect5827-4-9-5-5-6-4" width="10" height="10" x="-141.786" y="979.636"/><rect style="fill:#000" id="rect5829-0-3-6-9-0-3" width="10" height="70" x="-131.786" y="989.636"/><rect style="fill:#000" id="rect5831-5-1-1-8-9-6" width="10" height="10" x="-261.786" y="999.636"/><rect style="fill:#000" id="rect5839-1-22-6-7-4-1" width="10" height="60" x="-271.786" y="1009.636"/><rect style="fill:#000" id="rect5843-6-1-69-1-7-9-9" width="10" height="10" x="-261.786" y="1069.676"/><rect style="fill:#000" id="rect5847-2-8-6-6-2-5-7" width="90" height="10" x="-241.786" y="1089.676"/><rect style="fill:#000" id="rect5851-6-9-7-7-0-5-6" width="10" height="20" x="-141.786" y="1059.636"/><rect style="fill:#000" id="rect6730-3-96-1-0-3-0" width="10" height="10" x="-251.786" y="1079.676"/><rect style="fill:#000" id="rect7152-1-24-1-2-3-9" width="10" height="10" x="-151.786" y="1079.676"/></g></g><metadata id="metadata56"/></svg>