<svg xmlns="http://www.w3.org/2000/svg" xmlns:svg="http://www.w3.org/2000/svg" xmlns:xlink="http://www.w3.org/1999/xlink" id="svg1" width="128" height="128" version="1.1" viewBox="0 0 128 128"><title id="title4154">Blue Button</title><defs id="defs3"><linearGradient id="linearGradient1697"><stop id="stop1698" offset="0" style="stop-color:#0e56db"/><stop id="stop1699" offset="1" style="stop-color:#071176"/></linearGradient><linearGradient id="linearGradient1076" x1="520.57" x2="520.57" y1="506.29" y2="466.28" gradientTransform="matrix(2.9814595,0,0,2.9814595,-1357.1494,-1248.7817)" gradientUnits="userSpaceOnUse" xlink:href="#linearGradient1697"/><linearGradient id="linearGradient1077" x1="522.94" x2="522.94" y1="469.5" y2="505.08" gradientTransform="matrix(2.9814595,0,0,2.9814595,-1357.1494,-1248.7817)" gradientUnits="userSpaceOnUse" xlink:href="#linearGradient1697"/><linearGradient id="linearGradient1078" x1="213.83" x2="214.59" y1="183.48" y2="463.47" gradientTransform="matrix(0.50570776,0,0,0.20943637,94.199064,106.71009)" gradientUnits="userSpaceOnUse"><stop id="stop1703" offset="0" style="stop-color:#fff;stop-opacity:.69072"/><stop id="stop1704" offset="1" style="stop-color:#fff;stop-opacity:0"/></linearGradient><linearGradient id="linearGradient1364"><stop style="stop-color:#830f0f" id="stop1366" offset="0"/><stop style="stop-color:#220505" id="stop1368" offset="1"/></linearGradient><linearGradient id="linearGradient2848" x1="-.567" x2="-.337" y1="22.651" y2="23.859" gradientTransform="matrix(57.264599,0,0,57.264599,58.978783,-1304.5558)" gradientUnits="userSpaceOnUse"><stop style="stop-color:#fff" id="stop2844" offset="0"/><stop style="stop-color:#c8c8c8" id="stop2846" offset="1"/></linearGradient></defs><g id="layer1" transform="translate(-138.99649,-139.37474)" style="display:inline"><circle id="path1070" cx="202.996" cy="203.375" r="61.966" style="fill:url(#linearGradient1076);stroke:url(#linearGradient1077);stroke-width:4.06820154;stroke-linecap:round;stroke-linejoin:round"/><rect id="rect3454" width="128" height="128" x="138.996" y="139.375" style="display:inline;fill:none;fill-opacity:1;image-rendering:auto"/><rect id="rect3494" width="128" height="128" x="138.996" y="139.375" style="display:inline;fill:none;fill-opacity:1;image-rendering:auto"/><rect style="display:inline;fill:none;fill-opacity:1;image-rendering:auto" id="rect4191" width="128" height="128" x="138.996" y="139.375"/><rect id="rect3470" width="128" height="128" x="138.996" y="139.375" style="display:inline;fill:none;fill-opacity:1;image-rendering:auto"/><rect id="rect3482" width="128" height="128" x="138.996" y="139.375" style="display:inline;fill:none;fill-opacity:1;image-rendering:auto"/><g id="layer1-6" transform="translate(170.99649,171.37474)"><path id="flowRoot2834" d="m 41.742711,15.622324 -7.411756,0 -21.039013,3.493141 0,9.677717 2.509906,0.229058 c 5.140644,0.458117 6.57512,2.519643 6.57512,9.792247 l 0,17.236644 c 0,6.814487 -0.717522,8.131573 -5.259751,9.047807 l -3.825275,0.858969 0,9.677717 37.416116,0 0,-9.677717 -3.705593,-0.858969 c -4.542801,-1.030763 -5.259754,-2.23332 -5.259754,-9.047807 l 0,-40.428807 M 31.342316,-11.635624 c -6.335757,0 -11.834303,5.382872 -11.834303,11.7392425 0,6.2991058 5.020388,11.4529195 11.356144,11.4529195 6.455438,0 11.834874,-5.3828721 11.834874,-11.8537717 0,-6.2991059 -4.901277,-11.3383903 -11.356715,-11.3383903" style="fill:url(#linearGradient2848);stroke:#000;stroke-width:3;stroke-miterlimit:4;stroke-dasharray:none;stroke-opacity:1"/></g><path id="path1713" d="m 248.00006,187.05901 c 14.43996,-0.31568 -4.03551,-40.08171 -44.15627,-40.29325 -43.79177,-0.2213 -52.75125,36.11129 -45.79651,36.7752 0,0 11.99913,1.64675 23.41246,4.8361 18.37783,5.18433 40.85952,-4.25356 49.71811,-5.62693 9.87398,-1.52633 15.41629,5.01184 16.82221,4.30888 z" style="opacity:.9;fill:url(#linearGradient1078);fill-rule:evenodd"><title id="title3379">Shine</title></path></g><metadata id="metadata16"/></svg>