<svg xmlns="http://www.w3.org/2000/svg" xmlns:svg="http://www.w3.org/2000/svg" id="svg16168" width="128" height="128" version="1.1" viewBox="0 0 128 128" xml:space="preserve"><defs id="defs16234"><linearGradient id="linearGradient7671" x1="21.933" x2="21.933" y1="24.627" y2="7.109" gradientTransform="matrix(1.099,0,0,-0.79776,-1.9539,37.324)" gradientUnits="userSpaceOnUse"><stop id="stop7650" offset="0" style="stop-color:#8595bc"/><stop id="stop7652" offset="1" style="stop-color:#041a3b"/></linearGradient><linearGradient id="linearGradient7673" x1="21.933" x2="21.933" y1="24.627" y2="7.109" gradientTransform="matrix(1.099,0,0,1.1067,-1.9539,-4.9225)" gradientUnits="userSpaceOnUse"><stop id="stop16199" offset="0" style="stop-color:#d0d6e5;stroke-width:1.2167"/><stop id="stop16201" offset="1" style="stop-color:#093a80;stroke-width:1.2167"/></linearGradient><linearGradient id="linearGradient8148" x1="12.487" x2="31.081" y1="3.732" y2="36.033" gradientTransform="matrix(1.434,0,0,0.99009,52.322,2.8389)" gradientUnits="userSpaceOnUse"><stop id="stop16177" offset="0" style="stop-color:#d2d2d2;stroke-width:1.2167"/><stop id="stop16179" offset="1" style="stop-color:#ededed;stroke-width:1.2167"/></linearGradient><radialGradient id="radialGradient8161" cx="12.7" cy="10.405" r="19.969" gradientTransform="matrix(1.7105,0,0,1.1248,-11.568,1.8026)" gradientUnits="userSpaceOnUse"><stop id="stop8157" offset="0" style="stop-color:#fff"/><stop id="stop8159" offset="1" style="stop-color:#fff;stop-opacity:0"/></radialGradient><linearGradient id="linearGradient8166" x1="33.396" x2="34.17" y1="36.921" y2="38.07" gradientTransform="translate(5.1476,-3.4098)" gradientUnits="userSpaceOnUse"><stop id="stop2253" offset="0" style="stop-color:#fff"/><stop id="stop2255" offset="1" style="stop-color:#fff;stop-opacity:0"/></linearGradient><linearGradient id="linearGradient8169" x1="35.997" x2="33.665" y1="40.458" y2="37.771" gradientTransform="translate(5.1476,-3.0348)" gradientUnits="userSpaceOnUse"><stop id="stop2226" offset="0" style="stop-color:#7c7c7c"/><stop id="stop2228" offset="1" style="stop-color:#b8b8b8"/></linearGradient><linearGradient id="linearGradient8177" x1="42.188" x2="45" y1="31" y2="39.985" gradientUnits="userSpaceOnUse"><stop id="stop8173" offset="0" style="stop-color:#bbbdba"/><stop id="stop8175" offset="1" style="stop-color:#70746e"/></linearGradient></defs><g id="g4243" transform="matrix(2.9149075,0,0,2.9149075,-3.1848285,-2.9764126)"><path style="color:#000;fill:url(#linearGradient8148);stroke:#bbbfbb" id="rect7603" d="m 2.7178,6.4548 40.662,0 c 0.623,0 1.125,0.5017 1.125,1.125 l 0,23.901 c 0,0.623 -8.457,8.019 -9.08,8.019 l -32.707,0 c -0.6235,0 -1.1252,-0.502 -1.1252,-1.125 l 0,-30.795 c 0,-0.6235 0.5017,-1.1252 1.125,-1.1252 z"/><g id="g7654" transform="matrix(1.0548,0,0,1.05,-0.81465,4.485)"><path style="fill:url(#linearGradient7671)" id="path7644" d="m 5.5127,30 34.13,0 0,-10.373 -34.13,0 L 5.5124,30 Z"/><path style="fill:url(#linearGradient7673)" id="path16203" d="m 5.5127,5.2378 34.13,0 0,14.389 -34.13,0 -3e-4,-14.389 z"/><g style="stroke:#000;stroke-width:1.15610003" id="g16205" transform="matrix(1.1892,0,0,1.1892,-3.5254,-6.5354)"><g id="g16207"><path style="opacity:.05;fill:#e8f52f" id="path16209" d="m 18.4,15.4 c 0,2.2 -1.8,4.1 -4.1,4.1 -2.2,0 -4.1,-1.8 -4.1,-4.1 0,-2.2 1.8,-4.1 4.1,-4.1 2.2,0 4.1,1.8 4.1,4.1 z"/><path style="opacity:.2083;fill:#ecf751" id="path16211" d="m 18,15.4 c 0,2 -1.6,3.7 -3.7,3.7 -2,0 -3.7,-1.6 -3.7,-3.7 0,-2 1.6,-3.7 3.7,-3.7 2,0 3.7,1.6 3.7,3.7 z"/><path style="opacity:.3667;fill:#f0f972" id="path16213" d="m 17.6,15.4 c 0,1.8 -1.5,3.3 -3.3,3.3 -1.8,0 -3.3,-1.5 -3.3,-3.3 0,-1.8 1.5,-3.3 3.3,-3.3 1.8,0 3.3,1.5 3.3,3.3 z"/><path style="opacity:.525;fill:#f4fa95" id="path16215" d="m 17.2,15.4 c 0,1.6 -1.3,2.9 -2.9,2.9 -1.6,0 -2.9,-1.3 -2.9,-2.9 0,-1.6 1.3,-2.9 2.9,-2.9 1.6,0 2.9,1.3 2.9,2.9 z"/><path style="opacity:.6833;fill:#f7fcb7" id="path16217" d="m 16.8,15.4 c 0,1.4 -1.1,2.5 -2.5,2.5 -1.4,0 -2.5,-1.1 -2.5,-2.5 0,-1.4 1.1,-2.5 2.5,-2.5 1.4,0 2.5,1.1 2.5,2.5 z"/><path style="opacity:.8417;fill:#fbfddb" id="path16219" d="m 16.4,15.4 c 0,1.2 -1,2.1 -2.1,2.1 -1.1,0 -2.1,-1 -2.1,-2.1 0,-1.1 1,-2.1 2.1,-2.1 1.1,0 2.1,1 2.1,2.1 z"/><path style="fill:#fff" id="path16221" d="m 16,15.4 c 0,1 -0.8,1.8 -1.8,1.8 -1,0 -1.8,-0.8 -1.8,-1.8 0,-1 0.8,-1.8 1.8,-1.8 1,0 1.8,0.8 1.8,1.8 z"/></g></g><path style="opacity:.3" id="path16223" d="m 25.016,21.649 8.681,0 1.665,0.476 -2.854,0 c 0,0 2.854,0.238 4.281,2.021 1.427,1.665 -1.665,3.687 -1.665,3.687 -0.119,-0.357 -0.832,-3.211 -2.259,-4.4 -1.071,-0.952 -2.26,-1.189 -2.26,-1.189 l -5.589,0 0,-0.476 0,-0.119 z"/><path style="opacity:.3" id="path16225" d="m 30.724,22.363 -4.995,0 9.276,5.232 -4.281,-5.232 z"/><path style="fill:#515151" id="path16227" d="m 25.016,21.768 8.681,0 1.308,-0.832 -2.854,0 c 0,0 2.616,-0.476 2.973,-3.449 0.357,-2.973 -4.043,-6.303 -4.043,-6.303 l 0,0.119 c 0.119,0.713 1.308,5.708 0.476,7.611 -0.357,1.665 -1.428,2.022 -1.428,2.022 l -5.47,0 0.238,0.832 0.119,0 z"/><path style="fill:#515151" id="path16229" d="m 30.248,20.46 -4.994,0 5.946,-9.038 -0.952,9.038 z"/></g><path style="color:#000;fill:none;stroke:#fff" id="rect7675" d="m 2.8042,7.4529 40.43,0 c 0.15,0 0.271,0.121 0.271,0.2714 l 0,23.699 c 0,0.946 -7.103,7.077 -7.254,7.077 l -33.447,0 c -0.1501,0 -0.2712,-0.121 -0.2712,-0.271 l 0,-30.505 c 0,-0.1501 0.1211,-0.2711 0.2714,-0.2711 z"/><rect style="color:#000;opacity:.84658999;fill:none;stroke:#4f4f4f" id="rect8163" width="35.062" height="25.062" x="5.5" y="10.5"/><path style="color:#000;fill:url(#linearGradient8169);fill-rule:evenodd;stroke:url(#linearGradient8177)" id="path2210" d="m 35.207,39.469 c 2.03,0.33 9.588,-4.53 9.284,-8.498 -1.563,2.423 -4.758,1.287 -8.867,1.446 0,0 0.395,6.552 -0.417,7.052 z"/><path style="color:#000;opacity:.36932002;fill:none;stroke:url(#linearGradient8166)" id="path2247" d="m 36.657,37.277 c 1.37,-0.684 4.428,-2.146 5.728,-4.027 -1.596,0.68 -2.948,0.209 -5.703,0.19 0,0 0.163,3.062 -0.025,3.837 z"/><path style="color:#000;opacity:.30114004;fill:url(#radialGradient8161)" id="rect8150" d="m 3.0625,8 0,22.062 C 25.3885,30.951 27.8845,17 43.0005,17 l 0,-9 -39.938,0 z"/></g><metadata id="metadata61"/></svg>