<svg xmlns="http://www.w3.org/2000/svg" xmlns:svg="http://www.w3.org/2000/svg" id="svg11300" width="128" height="128" version="1.1" viewBox="0 0 128 128"><defs id="defs3"><radialGradient id="radialGradient6540" cx="20.656" cy="24.735" r="14.152" gradientTransform="translate(1.9717,9.2201)" gradientUnits="userSpaceOnUse"><stop id="stop6452" offset="0" style="stop-color:#767676"/><stop id="stop6454" offset="1" style="stop-color:#484848"/></radialGradient><linearGradient id="linearGradient7060" x1="21.032" x2="21.108" y1="31.868" y2="-4.599" gradientUnits="userSpaceOnUse"><stop id="stop7056" offset="0" style="stop-color:#fff"/><stop id="stop7058" offset="1" style="stop-color:#fff;stop-opacity:0"/></linearGradient><linearGradient id="linearGradient7075" x1="46.545" x2="40.82" y1="35.245" y2="34.14" gradientTransform="matrix(0.88488,0,0,0.88488,5.3181,5.9432)" gradientUnits="userSpaceOnUse"><stop id="stop7071" offset="0" style="stop-color:#888a85"/><stop id="stop7073" offset="1" style="stop-color:#888a85;stop-opacity:0"/></linearGradient><linearGradient id="linearGradient7093" x1="23.816" x2="29.049" y1="12.75" y2="25.772" gradientUnits="userSpaceOnUse"><stop id="stop7089" offset="0" style="stop-color:#888a85"/><stop id="stop7091" offset="1" style="stop-color:#b8b9b6"/></linearGradient><linearGradient id="linearGradient7144" x1="43.688" x2="26.625" y1="32.133" y2="32.133" gradientTransform="translate(0,2)" gradientUnits="userSpaceOnUse"><stop id="stop7140" offset="0" style="stop-color:#fff"/><stop id="stop7142" offset="1" style="stop-color:#fff;stop-opacity:0"/></linearGradient></defs><g id="layer1" transform="translate(38.343759,53.259316)"><g id="g4161" transform="matrix(2.8885766,0,0,2.8885766,-48.453777,-60.261494)"><ellipse style="color:#000;fill:#a1a39f;fill-rule:evenodd;stroke:#6d6f6a;stroke-width:.71907997;stroke-linecap:round;stroke-linejoin:round" id="path7028" cx="25.75" cy="21" rx="14.75" ry="8.25" transform="matrix(1.2542,0,0,1.5419,-9.7966,-6.2795)"/><ellipse style="color:#000;fill:#555753;fill-rule:evenodd" id="path7042" cx="25.75" cy="21" rx="14.75" ry="8.25" transform="matrix(0.76401,0,0,1.0018,2.3105,2.5431)"/><path style="fill:url(#radialGradient6540);stroke:#3b3d39" id="path6456" d="m 46.026,41.226 c 0,0 -8.324,-3.737 -13.656,-3.266 -5.683,0.501 -15.177,0.837 -18.898,-5.04 15.798,4.765 23.087,-3.146 33.779,1.31 l -1.225,6.996 z"/><ellipse style="color:#000;fill:url(#linearGradient7093);fill-rule:evenodd;stroke:#757972;stroke-width:1.23409998;stroke-linecap:round;stroke-linejoin:round" id="path7026" cx="25.75" cy="21" rx="14.75" ry="8.25" transform="matrix(0.76097,0,0,0.98666,2.905,0.58427)"/><path style="color:#000;fill:#d3d7cf;fill-rule:evenodd;stroke:#888a85;stroke-linecap:round;stroke-linejoin:round" id="path7012" d="M 21.094,7.7188 C 11.536,8.2444 4,14.133 4,21.2498 c 0,7.461 8.288,13.531 18.5,13.531 10.212,0 18.5,-6.07 18.5,-13.531 0,-7.461 -8.288,-13.531 -18.5,-13.531 -0.04,-2e-4 -0.085,-4e-4 -0.125,-2e-4 -0.238,0.0011 -0.483,-0.0077 -0.719,0 -0.115,0.0037 -0.229,-0.0053 -0.344,0 -0.075,0.0034 -0.143,-0.0042 -0.218,0 z m -1.375,2.1874 c 0.063,-0.0051 0.123,0.0035 0.187,0 0.134,-0.0072 0.27,0 0.406,0 2.917,10e-5 5.282,1.7018 5.282,3.7818 0,2.079 -2.365,3.75 -5.282,3.75 -2.916,0 -5.281,-1.671 -5.281,-3.75 0,-1.936 2.052,-3.569 4.688,-3.7818 z m 11.5,4.5938 c 0.066,-0.006 0.12,0.004 0.187,0 0.117,-0.007 0.225,0.002 0.344,0 0.048,-10e-4 0.077,0 0.125,0 3.103,0 5.625,1.814 5.625,4.031 0,2.217 -2.522,4 -5.625,4 -3.103,0 -5.625,-1.783 -5.625,-4 0,-2.048 2.192,-3.783 4.969,-4.031 z M 12,17.656 c 0.218,-0.018 0.463,0 0.688,0 3.192,0 5.781,1.843 5.781,4.125 0,2.283 -2.589,4.125 -5.781,4.125 -3.1929,0 -5.7818,-1.842 -5.7818,-4.125 0,-2.122 2.2137,-3.889 5.0938,-4.125 z m 11.531,5.125 c 0.024,-0.003 0.039,0.003 0.063,0 l 0.031,0 0.031,0 0.032,0 0.093,0 0.031,0 c 0.241,-0.02 0.471,0 0.719,0 3.532,0 6.407,2.03 6.407,4.563 0,2.533 -2.875,4.594 -6.407,4.594 -3.531,0 -6.406,-2.061 -6.406,-4.594 0,-2.282 2.361,-4.209 5.406,-4.563 z"/><ellipse style="color:#000;fill:none;stroke:url(#linearGradient7060);stroke-width:1.05929995;stroke-linecap:round;stroke-linejoin:round" id="path7044" cx="22.185" cy="19.009" rx="18.473" ry="13.435" transform="matrix(0.95053,0,0,0.9375,1.451,3.3206)"/><path style="color:#000;fill:url(#linearGradient7075);fill-rule:evenodd" id="path7067" d="m 46.875,34.494 -1.082,6.05 c -2.609,-0.876 -4.182,-1.568 -7.071,-2.257 l 0.332,-4.913 c 1.899,-0.201 4.863,0.142 7.821,1.12 z"/><path style="color:#000;opacity:.70330045;fill:url(#linearGradient7144);fill-rule:evenodd" id="path7136" d="m 46.875,34.312 -0.187,0.876 c -8.105,-3.029 -15.567,-0.227 -23.376,0 10.612,-0.883 14.091,-3.716 23.563,-0.876 z"/></g></g><metadata id="metadata33"/></svg>