<svg xmlns="http://www.w3.org/2000/svg" xmlns:svg="http://www.w3.org/2000/svg" xmlns:xlink="http://www.w3.org/1999/xlink" id="svg1" width="128" height="128" version="1.1" viewBox="0 0 128 128"><title id="title4242">Add Button</title><defs id="defs3"><linearGradient id="linearGradient1697"><stop id="stop1698" offset="0" style="stop-color:#0e56db"/><stop id="stop1699" offset="1" style="stop-color:#071176"/></linearGradient><linearGradient id="linearGradient1076-5" x1="520.57" x2="520.57" y1="506.29" y2="466.28" gradientTransform="matrix(2.9814594,0,0,2.9814594,-1357.1493,-1248.7816)" gradientUnits="userSpaceOnUse" xlink:href="#linearGradient1697-6"/><linearGradient id="linearGradient1697-6"><stop id="stop1698-6" offset="0" style="stop-color:#69db0e"/><stop id="stop1699-4" offset="1" style="stop-color:#397607"/></linearGradient><linearGradient id="linearGradient1077-0" x1="522.94" x2="522.94" y1="469.5" y2="505.08" gradientTransform="matrix(2.9814594,0,0,2.9814594,-1357.1493,-1248.7816)" gradientUnits="userSpaceOnUse" xlink:href="#linearGradient1697-6"/><linearGradient id="linearGradient1078-0" x1="213.83" x2="214.59" y1="183.48" y2="463.47" gradientTransform="matrix(0.50570774,0,0,0.20943636,94.195816,106.69349)" gradientUnits="userSpaceOnUse"><stop id="stop1703-4" offset="0" style="stop-color:#fff;stop-opacity:.69072"/><stop id="stop1704-6" offset="1" style="stop-color:#fff;stop-opacity:0"/></linearGradient></defs><g id="layer1" transform="translate(-138.99649,-139.37474)" style="display:inline"><g id="g4233"><circle id="path1070-2" cx="202.996" cy="203.375" r="61.966" style="fill:url(#linearGradient1076-5);stroke:url(#linearGradient1077-0);stroke-width:4.06820154;stroke-linecap:round;stroke-linejoin:round"/><rect style="display:inline;fill:none;fill-opacity:1;image-rendering:auto" id="rect3454" width="128" height="128" x="138.996" y="139.375"/><rect style="display:inline;fill:none;fill-opacity:1;image-rendering:auto" id="rect3494" width="128" height="128" x="138.996" y="139.375"/><rect id="rect4191" width="128" height="128" x="138.996" y="139.375" style="display:inline;fill:none;fill-opacity:1;image-rendering:auto"/><rect style="display:inline;fill:none;fill-opacity:1;image-rendering:auto" id="rect3470" width="128" height="128" x="138.996" y="139.375"/><rect style="display:inline;fill:none;fill-opacity:1;image-rendering:auto" id="rect3482" width="128" height="128" x="138.996" y="139.375"/><path id="path4184" d="m 202.99649,152.55638 c -1.16983,0 -2.26937,0.21166 -3.29883,0.63281 -0.26326,0.10969 -0.5145,0.23106 -0.75976,0.36133 -0.801,0.42542 -1.50817,0.95868 -2.11719,1.60352 -0.79549,0.84229 -1.42856,1.77718 -1.89649,2.80664 -0.46794,1.02946 -0.70117,2.15253 -0.70117,3.36914 l 0,21.19726 0,12.07422 -12.07422,0 -21.19726,0 c -1.21663,0 -2.33968,0.23324 -3.36914,0.70117 -1.02946,0.46794 -1.96434,1.09905 -2.80664,1.89454 -0.84229,0.79549 -1.49692,1.75586 -1.96485,2.8789 -0.42115,1.02946 -0.63281,2.12899 -0.63281,3.29883 0,1.16983 0.21166,2.26937 0.63281,3.29883 0.10969,0.26326 0.23106,0.5145 0.36133,0.75976 0.42542,0.801 0.95868,1.50817 1.60352,2.11719 0.84229,0.79549 1.77718,1.42856 2.80664,1.89649 1.02946,0.46794 2.15253,0.70117 3.36914,0.70117 l 21.19726,0 12.07422,0 0,12.07226 0,21.19727 c 0,1.21664 0.23323,2.33968 0.70117,3.36914 0.46793,1.02946 1.101,1.9663 1.89649,2.80859 0.60902,0.64485 1.31619,1.1781 2.11719,1.60352 0.24934,0.13505 0.50159,0.2557 0.75976,0.36133 1.02946,0.42115 2.12899,0.63281 3.29883,0.63281 1.16984,0 2.26937,-0.21166 3.29883,-0.63281 1.12305,-0.46793 2.08341,-1.12255 2.8789,-1.96485 0.79549,-0.84227 1.4266,-1.77913 1.89454,-2.80859 0.46793,-1.02946 0.70117,-2.15251 0.70117,-3.36914 l 0,-21.19727 0,-12.07226 12.07226,0 21.19727,0 c 1.21664,0 2.33968,-0.23323 3.36914,-0.70117 1.02946,-0.46793 1.9663,-1.101 2.80859,-1.89649 0.64485,-0.60902 1.1781,-1.31619 1.60352,-2.11719 0.13505,-0.24934 0.2557,-0.50159 0.36133,-0.75976 0.42115,-1.02946 0.63281,-2.12899 0.63281,-3.29883 0,-1.16984 -0.21166,-2.26937 -0.63281,-3.29883 -0.46793,-1.12305 -1.12255,-2.08341 -1.96485,-2.8789 -0.84227,-0.79549 -1.77913,-1.4266 -2.80859,-1.89454 -1.02946,-0.46793 -2.15251,-0.70117 -3.36914,-0.70117 l -21.19727,0 -12.07226,0 0,-12.07422 0,-21.19726 c 0,-1.21663 -0.23324,-2.33968 -0.70117,-3.36914 -0.46794,-1.02946 -1.09905,-1.96434 -1.89454,-2.80664 -0.79549,-0.84229 -1.75586,-1.49692 -2.8789,-1.96485 -1.02946,-0.42115 -2.12899,-0.63281 -3.29883,-0.63281 z" style="font-style:normal;font-variant:normal;font-weight:700;font-stretch:normal;font-size:143.75px;line-height:100%;font-family:Jellee;-inkscape-font-specification:'Jellee, Bold';text-align:start;letter-spacing:0;word-spacing:0;writing-mode:lr-tb;text-anchor:start;fill:#fff;fill-opacity:1;stroke:#000;stroke-width:2;stroke-linecap:butt;stroke-linejoin:miter;stroke-miterlimit:4;stroke-dasharray:none;stroke-opacity:1"/><path id="path1713-6" d="m 247.99681,187.0424 c 14.43996,-0.31568 -4.03551,-40.0817 -44.15627,-40.29324 -43.79177,-0.2213 -52.75125,36.11129 -45.79651,36.77519 0,0 11.99913,1.64675 23.41246,4.8361 18.37783,5.18433 40.85951,-4.25355 49.71811,-5.62693 9.87397,-1.52633 15.41629,5.01184 16.82221,4.30888 z" style="opacity:.9;fill:url(#linearGradient1078-0);fill-rule:evenodd"/></g></g><metadata id="metadata16"/></svg>