<svg xmlns="http://www.w3.org/2000/svg" xmlns:svg="http://www.w3.org/2000/svg" xmlns:xlink="http://www.w3.org/1999/xlink" id="svg1" width="128" height="128" version="1.1" viewBox="0 0 128 128"><title id="title4154">Round Blue Button</title><defs id="defs3"><linearGradient id="linearGradient1697"><stop id="stop1698" offset="0" style="stop-color:#0e56db"/><stop id="stop1699" offset="1" style="stop-color:#071176"/></linearGradient><linearGradient id="linearGradient1076" x1="520.57" x2="520.57" y1="506.29" y2="466.28" gradientTransform="matrix(2.9814595,0,0,2.9814595,-1357.1494,-1248.7817)" gradientUnits="userSpaceOnUse" xlink:href="#linearGradient1697"/><linearGradient id="linearGradient1077" x1="522.94" x2="522.94" y1="469.5" y2="505.08" gradientTransform="matrix(2.9814595,0,0,2.9814595,-1357.1494,-1248.7817)" gradientUnits="userSpaceOnUse" xlink:href="#linearGradient1697"/><linearGradient id="linearGradient1078" x1="213.83" x2="214.59" y1="183.48" y2="463.47" gradientTransform="matrix(0.50570776,0,0,0.20943637,94.199064,106.71009)" gradientUnits="userSpaceOnUse"><stop id="stop1703" offset="0" style="stop-color:#fff;stop-opacity:.69072"/><stop id="stop1704" offset="1" style="stop-color:#fff;stop-opacity:0"/></linearGradient></defs><g id="layer1" transform="translate(-138.99649,-139.37474)" style="display:inline"><circle id="path1070" cx="202.996" cy="203.375" r="61.966" style="fill:url(#linearGradient1076);stroke:url(#linearGradient1077);stroke-width:4.06820154;stroke-linecap:round;stroke-linejoin:round"/><rect id="rect3454" width="128" height="128" x="138.996" y="139.375" style="display:inline;fill:none;fill-opacity:1;image-rendering:auto"/><rect id="rect3494" width="128" height="128" x="138.996" y="139.375" style="display:inline;fill:none;fill-opacity:1;image-rendering:auto"/><rect style="display:inline;fill:none;fill-opacity:1;image-rendering:auto" id="rect4191" width="128" height="128" x="138.996" y="139.375"/><rect id="rect3470" width="128" height="128" x="138.996" y="139.375" style="display:inline;fill:none;fill-opacity:1;image-rendering:auto"/><rect id="rect3482" width="128" height="128" x="138.996" y="139.375" style="display:inline;fill:none;fill-opacity:1;image-rendering:auto"/><path id="path1713" d="m 248.00006,187.05901 c 14.43996,-0.31568 -4.03551,-40.08171 -44.15627,-40.29325 -43.79177,-0.2213 -52.75125,36.11129 -45.79651,36.7752 0,0 11.99913,1.64675 23.41246,4.8361 18.37783,5.18433 40.85952,-4.25356 49.71811,-5.62693 9.87398,-1.52633 15.41629,5.01184 16.82221,4.30888 z" style="opacity:.9;fill:url(#linearGradient1078);fill-rule:evenodd"><title id="title3379">Shine</title></path></g><metadata id="metadata16"/></svg>