<svg xmlns="http://www.w3.org/2000/svg" xmlns:svg="http://www.w3.org/2000/svg" xmlns:xlink="http://www.w3.org/1999/xlink" id="svg1" width="128" height="128" version="1.1" viewBox="0 0 128 128"><title id="title4143">Round Cyan Button</title><defs id="defs3"><linearGradient id="linearGradient1697"><stop id="stop1698" offset="0" style="stop-color:#0edbb7"/><stop id="stop1699" offset="1" style="stop-color:#067662"/></linearGradient><linearGradient id="linearGradient1076" x1="520.57" x2="520.57" y1="506.29" y2="466.28" gradientUnits="userSpaceOnUse" xlink:href="#linearGradient1697"/><linearGradient id="linearGradient1077" x1="522.94" x2="522.94" y1="469.5" y2="505.08" gradientUnits="userSpaceOnUse" xlink:href="#linearGradient1697"/><linearGradient id="linearGradient1078" x1="213.83" x2="214.59" y1="183.48" y2="463.47" gradientTransform="matrix(1.5539,0,0,0.64354,-1.0179,0)" gradientUnits="userSpaceOnUse"><stop id="stop1703" offset="0" style="stop-color:#fff;stop-opacity:.69072"/><stop id="stop1704" offset="1" style="stop-color:#fff;stop-opacity:0"/></linearGradient></defs><g id="layer1" transform="translate(-138.99649,-139.37474)"><g id="g4164" transform="matrix(0.32544421,0,0,0.32544421,136.93246,137.18761)"><circle style="fill:url(#linearGradient1076);stroke:url(#linearGradient1077);stroke-width:1.36450005;stroke-linecap:round;stroke-linejoin:round" id="path1070" cx="523.283" cy="487.062" r="20.784" transform="matrix(9.1612,0,0,9.1612,-4590.9,-4258.7)"/><path style="opacity:.9;fill:url(#linearGradient1078);fill-rule:evenodd" id="path1713" d="m 471.57,246.89 c 44.37,-0.97 -12.4,-123.16 -135.68,-123.81 -134.56,-0.68 -162.09,110.96 -140.72,113 0,0 36.87,5.06 71.94,14.86 56.47,15.93 125.55,-13.07 152.77,-17.29 30.34,-4.69 47.37,15.4 51.69,13.24 z" transform="translate(-130.29,-93.649)"/></g></g><metadata id="metadata16"/></svg>