<svg xmlns="http://www.w3.org/2000/svg" xmlns:svg="http://www.w3.org/2000/svg" xmlns:xlink="http://www.w3.org/1999/xlink" id="svg1" width="128" height="128" version="1.1" viewBox="0 0 128 128"><title id="title4242">Cancel Button</title><defs id="defs3"><linearGradient id="linearGradient1697"><stop id="stop1698" offset="0" style="stop-color:#0e56db"/><stop id="stop1699" offset="1" style="stop-color:#071176"/></linearGradient><linearGradient id="linearGradient1697-6"><stop id="stop1698-6" offset="0" style="stop-color:#69db0e"/><stop id="stop1699-4" offset="1" style="stop-color:#397607"/></linearGradient><linearGradient id="linearGradient1076" x1="520.57" x2="520.57" y1="506.29" y2="466.28" gradientTransform="matrix(2.9814595,0,0,2.9814595,-1357.1494,-1248.7816)" gradientUnits="userSpaceOnUse" xlink:href="#linearGradient1697-7"/><linearGradient id="linearGradient1697-7"><stop id="stop1698-5" offset="0" style="stop-color:#db210e"/><stop id="stop1699-8" offset="1" style="stop-color:#761107"/></linearGradient><linearGradient id="linearGradient1077" x1="522.94" x2="522.94" y1="469.5" y2="505.08" gradientTransform="matrix(2.9814595,0,0,2.9814595,-1357.1494,-1248.7816)" gradientUnits="userSpaceOnUse" xlink:href="#linearGradient1697-7"/><linearGradient id="linearGradient1078" x1="213.83" x2="214.59" y1="183.48" y2="463.47" gradientTransform="matrix(0.50570776,0,0,0.20943637,94.199062,106.71009)" gradientUnits="userSpaceOnUse"><stop id="stop1703" offset="0" style="stop-color:#fff;stop-opacity:.69072"/><stop id="stop1704" offset="1" style="stop-color:#fff;stop-opacity:0"/></linearGradient></defs><g id="layer1" transform="translate(-138.99649,-139.37474)" style="display:inline"><g id="g4269"><rect style="display:inline;fill:none;fill-opacity:1;image-rendering:auto" id="rect3454" width="128" height="128" x="138.996" y="139.375"/><rect style="display:inline;fill:none;fill-opacity:1;image-rendering:auto" id="rect3494" width="128" height="128" x="138.996" y="139.375"/><rect id="rect4191" width="128" height="128" x="138.996" y="139.375" style="display:inline;fill:none;fill-opacity:1;image-rendering:auto"/><rect style="display:inline;fill:none;fill-opacity:1;image-rendering:auto" id="rect3470" width="128" height="128" x="138.996" y="139.375"/><rect style="display:inline;fill:none;fill-opacity:1;image-rendering:auto" id="rect3482" width="128" height="128" x="138.996" y="139.375"/><circle style="fill:url(#linearGradient1076);stroke:url(#linearGradient1077);stroke-width:4.06820154;stroke-linecap:round;stroke-linejoin:round" id="path1070" cx="202.996" cy="203.375" r="61.966"/><path id="path4184" d="m 167.06248,167.44073 c -0.82719,0.8272 -1.45502,1.75436 -1.88516,2.78009 -0.10859,0.26372 -0.20042,0.52719 -0.28173,0.79273 -0.26558,0.86721 -0.38855,1.74433 -0.36322,2.63094 0.0331,1.15809 0.24651,2.2668 0.64357,3.32562 0.39706,1.05882 1.02627,2.01787 1.88654,2.87814 l 14.98873,14.98873 8.53776,8.53776 -8.53776,8.53776 -14.98873,14.98873 c -0.86028,0.86029 -1.48947,1.81933 -1.88654,2.87814 -0.39705,1.05882 -0.61185,2.16615 -0.64495,3.32424 -0.0331,1.15808 0.1831,2.30006 0.64633,3.42505 0.43014,1.02573 1.05796,1.95289 1.88516,2.78009 0.8272,0.82719 1.75436,1.45502 2.78009,1.88516 0.26372,0.10859 0.52719,0.20042 0.79273,0.28173 0.86721,0.26558 1.74433,0.38855 2.63094,0.36322 1.15809,-0.0331 2.2668,-0.24651 3.32562,-0.64357 1.05882,-0.39706 2.01787,-1.02627 2.87814,-1.88654 l 14.98873,-14.98873 8.53776,-8.53776 8.53638,8.53637 14.98873,14.98874 c 0.86029,0.86029 1.81932,1.48948 2.87814,1.88654 1.05882,0.39706 2.16891,0.61186 3.327,0.64495 0.88662,0.0253 1.76373,-0.0976 2.63094,-0.36322 0.2718,-0.0808 0.53548,-0.17387 0.79273,-0.28173 1.02573,-0.43014 1.95289,-1.05796 2.78009,-1.88516 0.8272,-0.8272 1.45502,-1.75436 1.88516,-2.78009 0.46324,-1.125 0.67943,-2.26696 0.64633,-3.42505 -0.0331,-1.15807 -0.24928,-2.26679 -0.64633,-3.32562 -0.39706,-1.05881 -1.02625,-2.01785 -1.88654,-2.87814 l -14.98874,-14.98873 -8.53637,-8.53638 8.53637,-8.53638 14.98874,-14.98873 c 0.86029,-0.86029 1.48948,-1.81932 1.88654,-2.87814 0.39706,-1.05882 0.61186,-2.16891 0.64495,-3.327 0.0253,-0.88662 -0.0976,-1.76373 -0.36322,-2.63094 -0.0808,-0.2718 -0.17387,-0.53548 -0.28173,-0.79273 -0.43014,-1.02573 -1.05796,-1.95289 -1.88516,-2.78009 -0.8272,-0.8272 -1.75436,-1.45502 -2.78009,-1.88516 -1.125,-0.46324 -2.26696,-0.67943 -3.42505,-0.64633 -1.15807,0.0331 -2.26679,0.24928 -3.32562,0.64633 -1.05881,0.39706 -2.01785,1.02625 -2.87814,1.88654 l -14.98873,14.98874 -8.53638,8.53637 -8.53776,-8.53776 L 179.47,167.44073 c -0.86029,-0.86028 -1.81933,-1.48947 -2.87814,-1.88654 -1.05882,-0.39705 -2.16615,-0.61185 -3.32424,-0.64495 -1.15808,-0.0331 -2.30006,0.1831 -3.42505,0.64633 -1.02573,0.43014 -1.95289,1.05796 -2.78009,1.88516 z" style="font-style:normal;font-variant:normal;font-weight:700;font-stretch:normal;font-size:143.75px;line-height:100%;font-family:Jellee;-inkscape-font-specification:'Jellee, Bold';text-align:start;letter-spacing:0;word-spacing:0;writing-mode:lr-tb;text-anchor:start;fill:#fff;fill-opacity:1;stroke:#000;stroke-width:2;stroke-linecap:butt;stroke-linejoin:miter;stroke-miterlimit:4;stroke-dasharray:none;stroke-opacity:1"/><path style="opacity:.9;fill:url(#linearGradient1078);fill-rule:evenodd" id="path1713" d="m 248.00006,187.05901 c 14.43996,-0.31568 -4.03551,-40.08171 -44.15627,-40.29325 -43.79178,-0.2213 -52.75125,36.11129 -45.79651,36.7752 0,0 11.99913,1.64675 23.41245,4.8361 18.37784,5.18433 40.85953,-4.25356 49.71812,-5.62693 9.87397,-1.52633 15.41629,5.01184 16.82221,4.30888 z"/></g></g><metadata id="metadata16"/></svg>