<svg xmlns="http://www.w3.org/2000/svg" xmlns:svg="http://www.w3.org/2000/svg" xmlns:xlink="http://www.w3.org/1999/xlink" id="svg1" width="128" height="128" version="1.1" viewBox="0 0 128 128"><title id="title4164">Clear Button</title><defs id="defs3"><linearGradient id="linearGradient1697"><stop id="stop1698" offset="0" style="stop-color:#db210e"/><stop id="stop1699" offset="1" style="stop-color:#761107"/></linearGradient><linearGradient id="linearGradient1076" x1="520.57" x2="520.57" y1="506.29" y2="466.28" gradientTransform="matrix(2.9814595,0,0,2.9814595,-1357.1494,-1248.7816)" gradientUnits="userSpaceOnUse" xlink:href="#linearGradient1697"/><linearGradient id="linearGradient1077" x1="522.94" x2="522.94" y1="469.5" y2="505.08" gradientTransform="matrix(2.9814595,0,0,2.9814595,-1357.1494,-1248.7816)" gradientUnits="userSpaceOnUse" xlink:href="#linearGradient1697"/><linearGradient id="linearGradient1078" x1="213.83" x2="214.59" y1="183.48" y2="463.47" gradientTransform="matrix(0.50570776,0,0,0.20943637,94.199064,106.71009)" gradientUnits="userSpaceOnUse"><stop id="stop1703" offset="0" style="stop-color:#fff;stop-opacity:.69072"/><stop id="stop1704" offset="1" style="stop-color:#fff;stop-opacity:0"/></linearGradient></defs><g id="layer1" transform="translate(-138.99649,-139.37474)"><g id="g4191"><circle style="fill:url(#linearGradient1076);stroke:url(#linearGradient1077);stroke-width:4.06820154;stroke-linecap:round;stroke-linejoin:round" id="path1070" cx="202.996" cy="203.375" r="61.966"/><g id="flowRoot4165" transform="translate(705.33501,-461.44659)" style="font-style:normal;font-variant:normal;font-weight:700;font-stretch:normal;font-size:107.5px;line-height:100%;font-family:Jellee;-inkscape-font-specification:'Jellee, Bold';text-align:start;letter-spacing:0;word-spacing:0;writing-mode:lr-tb;text-anchor:start;display:inline;fill:#fff;fill-opacity:1;stroke:#000;stroke-width:2;stroke-linecap:butt;stroke-linejoin:miter;stroke-miterlimit:4;stroke-dasharray:none;stroke-opacity:1"><path id="path4187" d="m -538.61977,665.46633 c 0,25.8 13.545,41.71 39.775,41.71 14.2975,0 32.7875,-6.235 32.7875,-19.565 0,-5.59 -4.515,-10.105 -9.9975,-10.105 -10.535,0 -8.4925,13.4375 -22.79,13.4375 -9.7825,0 -18.06,-7.6325 -18.06,-26.445 0,-18.1675 7.8475,-25.8 18.06,-25.8 13.6525,0 11.9325,12.04 21.8225,12.04 5.375,0 9.7825,-4.3 9.7825,-9.7825 0,-12.9 -18.275,-18.49 -31.605,-18.49 -24.4025,0 -39.775,17.5225 -39.775,43 z" style="font-style:normal;font-variant:normal;font-weight:700;font-stretch:normal;font-size:107.5px;line-height:100%;font-family:Jellee;-inkscape-font-specification:'Jellee, Bold';text-align:start;writing-mode:lr-tb;text-anchor:start;fill:#fff;fill-opacity:1;stroke:#000;stroke-width:2;stroke-miterlimit:4;stroke-dasharray:none;stroke-opacity:1"/></g><path style="opacity:.9;fill:url(#linearGradient1078);fill-rule:evenodd" id="path1713" d="m 248.00006,187.05901 c 14.43996,-0.31568 -4.03551,-40.08171 -44.15627,-40.29325 -43.79177,-0.2213 -52.75125,36.11129 -45.79651,36.7752 0,0 11.99913,1.64675 23.41246,4.8361 18.37783,5.18433 40.85952,-4.25356 49.71811,-5.62693 9.87398,-1.52633 15.41629,5.01184 16.82221,4.30888 z"/></g></g><metadata id="metadata16"/></svg>