<svg xmlns="http://www.w3.org/2000/svg" xmlns:svg="http://www.w3.org/2000/svg" xmlns:xlink="http://www.w3.org/1999/xlink" id="svg1" width="128" height="128" version="1.1" viewBox="0 0 128 128"><title id="title4144">Full Button</title><defs id="defs3"><linearGradient id="linearGradient1697"><stop id="stop1698" offset="0" style="stop-color:#69db0e"/><stop id="stop1699" offset="1" style="stop-color:#397607"/></linearGradient><linearGradient id="linearGradient1076" x1="520.57" x2="520.57" y1="506.29" y2="466.28" gradientTransform="matrix(2.9814594,0,0,2.9814594,-1357.1393,-1248.7306)" gradientUnits="userSpaceOnUse" xlink:href="#linearGradient1697"/><linearGradient id="linearGradient1077" x1="522.94" x2="522.94" y1="469.5" y2="505.08" gradientTransform="matrix(2.9814594,0,0,2.9814594,-1357.1393,-1248.7306)" gradientUnits="userSpaceOnUse" xlink:href="#linearGradient1697"/><linearGradient id="linearGradient1078" x1="213.83" x2="214.59" y1="183.48" y2="463.47" gradientTransform="matrix(0.50570774,0,0,0.20943636,94.205806,106.74449)" gradientUnits="userSpaceOnUse"><stop id="stop1703" offset="0" style="stop-color:#fff;stop-opacity:.69072"/><stop id="stop1704" offset="1" style="stop-color:#fff;stop-opacity:0"/></linearGradient></defs><g id="layer1" transform="translate(-139.00648,-139.42574)"><g id="g4151"><circle id="path1070" cx="203.006" cy="203.426" r="61.966" style="fill:url(#linearGradient1076);stroke:url(#linearGradient1077);stroke-width:4.06820154;stroke-linecap:round;stroke-linejoin:round"/><g id="flowRoot4780" transform="translate(173.09398,159.91566)" style="font-style:normal;font-variant:normal;font-weight:700;font-stretch:normal;font-size:107.5px;line-height:100%;font-family:Jellee;-inkscape-font-specification:'Jellee, Bold';text-align:start;letter-spacing:0;word-spacing:0;writing-mode:lr-tb;text-anchor:start;display:inline;fill:#fff;fill-opacity:1;stroke:#000;stroke-width:2;stroke-linecap:butt;stroke-linejoin:miter;stroke-miterlimit:4;stroke-dasharray:none;stroke-opacity:1"><path id="path4187" d="m 2.5,74.201328 c 0,5.6975 4.6225,10.32 10.32,10.32 5.6975,0 10.32,-4.6225 10.32,-10.32 l 0,-20.1025 20.9625,0 c 4.4075,0 8.0625,-3.655 8.0625,-8.17 0,-4.4075 -3.655,-8.0625 -8.0625,-8.0625 l -20.9625,0 0,-18.705 25.9075,0 c 4.515,0 8.2775,-3.7625 8.2775,-8.385 0,-4.5149999 -3.7625,-8.2774999 -8.2775,-8.2774999 l -37.41,0 c -5.9125,0 -9.1375,3.225 -9.1375,9.1374999 l 0,62.565 z" style="font-style:normal;font-variant:normal;font-weight:700;font-stretch:normal;font-size:107.5px;line-height:100%;font-family:Jellee;-inkscape-font-specification:'Jellee, Bold';text-align:start;writing-mode:lr-tb;text-anchor:start;fill:#fff;fill-opacity:1;stroke:#000;stroke-width:2;stroke-miterlimit:4;stroke-dasharray:none;stroke-opacity:1"/></g><path id="path1713" d="m 248.0068,187.0934 c 14.43996,-0.31568 -4.03551,-40.0817 -44.15627,-40.29324 -43.79177,-0.2213 -52.75125,36.11129 -45.79651,36.77519 0,0 11.99913,1.64675 23.41246,4.8361 18.37783,5.18433 40.85951,-4.25355 49.71811,-5.62693 9.87397,-1.52633 15.41629,5.01184 16.82221,4.30888 z" style="opacity:.9;fill:url(#linearGradient1078);fill-rule:evenodd"/></g></g><metadata id="metadata17"/></svg>