<svg xmlns="http://www.w3.org/2000/svg" xmlns:svg="http://www.w3.org/2000/svg" xmlns:xlink="http://www.w3.org/1999/xlink" id="svg1" width="128" height="128" version="1.1" viewBox="0 0 128 128"><title id="title4154">Help Button</title><defs id="defs3"><linearGradient id="linearGradient1697"><stop id="stop1698" offset="0" style="stop-color:#0e56db"/><stop id="stop1699" offset="1" style="stop-color:#071176"/></linearGradient><linearGradient id="linearGradient1076" x1="520.57" x2="520.57" y1="506.29" y2="466.28" gradientTransform="matrix(2.9814595,0,0,2.9814595,-1357.1494,-1248.7817)" gradientUnits="userSpaceOnUse" xlink:href="#linearGradient1697"/><linearGradient id="linearGradient1077" x1="522.94" x2="522.94" y1="469.5" y2="505.08" gradientTransform="matrix(2.9814595,0,0,2.9814595,-1357.1494,-1248.7817)" gradientUnits="userSpaceOnUse" xlink:href="#linearGradient1697"/><linearGradient id="linearGradient1078" x1="213.83" x2="214.59" y1="183.48" y2="463.47" gradientTransform="matrix(0.50570776,0,0,0.20943637,94.199064,106.71009)" gradientUnits="userSpaceOnUse"><stop id="stop1703" offset="0" style="stop-color:#fff;stop-opacity:.69072"/><stop id="stop1704" offset="1" style="stop-color:#fff;stop-opacity:0"/></linearGradient></defs><g id="layer1" transform="translate(-138.99649,-139.37474)" style="display:inline"><g id="g4171"><circle style="fill:url(#linearGradient1076);stroke:url(#linearGradient1077);stroke-width:4.06820154;stroke-linecap:round;stroke-linejoin:round" id="path1070" cx="202.996" cy="203.375" r="61.966"/><rect style="display:inline;fill:none;fill-opacity:1;image-rendering:auto" id="rect3454" width="128" height="128" x="138.996" y="139.375"/><rect style="display:inline;fill:none;fill-opacity:1;image-rendering:auto" id="rect3494" width="128" height="128" x="138.996" y="139.375"/><rect id="rect4191" width="128" height="128" x="138.996" y="139.375" style="display:inline;fill:none;fill-opacity:1;image-rendering:auto"/><rect style="display:inline;fill:none;fill-opacity:1;image-rendering:auto" id="rect3470" width="128" height="128" x="138.996" y="139.375"/><rect style="display:inline;fill:none;fill-opacity:1;image-rendering:auto" id="rect3482" width="128" height="128" x="138.996" y="139.375"/><g id="flowRoot4154" transform="translate(132.58524,114.45599)" style="font-style:normal;font-weight:400;font-size:40px;line-height:125%;font-family:sans-serif;letter-spacing:0;word-spacing:0;fill:#fff;fill-opacity:1;stroke:#000;stroke-width:2;stroke-linecap:butt;stroke-linejoin:miter;stroke-opacity:1;stroke-miterlimit:4;stroke-dasharray:none"><path id="path4163" d="m 41.5475,64.785 c 0,5.0525 4.1925,9.245 9.245,9.245 3.7625,0 6.88,-2.15 8.385,-5.375 1.935,-4.1925 5.2675,-6.235 10.4275,-6.235 6.45,0 9.89,3.5475 9.89,8.385 0,5.0525 -2.795,7.4175 -9.3525,12.04 -6.9875,4.945 -10.32,8.2775 -10.32,14.2975 0,6.02 4.8375,7.6325 8.815,7.6325 3.225,0 6.3425,-0.645 8.6,-3.655 C 80.0325,97.3575 79.28,95.745 86.16,91.015 94.2225,85.425 99.275,81.0175 99.275,69.8375 99.275,55.54 88.6325,46.725 69.82,46.725 c -13.4375,0 -28.2725,6.665 -28.2725,18.06 z m 16.125,56.8675 c 0,5.2675 4.1925,9.46 9.3525,9.46 l 3.01,0 c 5.16,0 9.3525,-4.1925 9.3525,-9.3525 0,-5.2675 -4.1925,-9.46 -9.3525,-9.46 l -3.01,0 c -5.16,0 -9.3525,4.1925 -9.3525,9.3525 z" style="font-style:normal;font-variant:normal;font-weight:700;font-stretch:normal;font-size:107.5px;line-height:100%;font-family:Jellee;-inkscape-font-specification:'Jellee, Bold';text-align:start;writing-mode:lr-tb;text-anchor:start;fill:#fff;fill-opacity:1;stroke:#000;stroke-opacity:1;stroke-width:2;stroke-miterlimit:4;stroke-dasharray:none"/></g><path style="opacity:.9;fill:url(#linearGradient1078);fill-rule:evenodd" id="path1713" d="m 248.00006,187.05901 c 14.43996,-0.31568 -4.03551,-40.08171 -44.15627,-40.29325 -43.79177,-0.2213 -52.75125,36.11129 -45.79651,36.7752 0,0 11.99913,1.64675 23.41246,4.8361 18.37783,5.18433 40.85952,-4.25356 49.71811,-5.62693 9.87398,-1.52633 15.41629,5.01184 16.82221,4.30888 z"><title id="title3379">Shine</title></path></g></g><metadata id="metadata16"/></svg>