<svg xmlns="http://www.w3.org/2000/svg" xmlns:svg="http://www.w3.org/2000/svg" xmlns:xlink="http://www.w3.org/1999/xlink" id="svg4233" width="128" height="128" version="1.1" viewBox="0 0 128 128"><title id="title4818">Hide Button</title><defs id="defs4235"><linearGradient id="linearGradient1076" x1="520.57" x2="520.57" y1="506.29" y2="466.28" gradientTransform="matrix(2.9814595,0,0,2.9814595,-1200.1459,-985.50848)" gradientUnits="userSpaceOnUse" xlink:href="#linearGradient1697"/><linearGradient id="linearGradient1697"><stop id="stop1698" offset="0" style="stop-color:#0edbb7"/><stop id="stop1699" offset="1" style="stop-color:#067662"/></linearGradient><linearGradient id="linearGradient1077" x1="522.94" x2="522.94" y1="469.5" y2="505.08" gradientTransform="matrix(2.9814595,0,0,2.9814595,-1200.1459,-985.50848)" gradientUnits="userSpaceOnUse" xlink:href="#linearGradient1697"/><linearGradient id="linearGradient1078" x1="213.83" x2="214.59" y1="183.48" y2="463.47" gradientTransform="matrix(0.50570776,0,0,0.20943637,251.20259,369.98326)" gradientUnits="userSpaceOnUse"><stop id="stop1703" offset="0" style="stop-color:#fff;stop-opacity:.69072"/><stop id="stop1704" offset="1" style="stop-color:#fff;stop-opacity:0"/></linearGradient></defs><metadata id="metadata4238"/><g id="layer1" transform="translate(-296,-402.64791)"><g id="g4218"><circle style="fill:url(#linearGradient1076);stroke:url(#linearGradient1077);stroke-width:4.06820154;stroke-linecap:round;stroke-linejoin:round" id="path1070" cx="360" cy="466.648" r="61.966"/><g id="g4213"><path style="font-style:normal;font-variant:normal;font-weight:700;font-stretch:normal;font-size:143.75px;line-height:100%;font-family:Jellee;-inkscape-font-specification:'Jellee, Bold';text-align:start;letter-spacing:0;word-spacing:0;writing-mode:lr-tb;text-anchor:start;display:inline;fill:#fff;fill-opacity:1;stroke:#000;stroke-width:1.99999976;stroke-linecap:butt;stroke-linejoin:miter;stroke-miterlimit:4;stroke-dasharray:none;stroke-opacity:1" id="path4184" d="m 328.46778,460.06783 c -0.91248,0 -1.75476,0.17492 -2.52686,0.52588 -0.77209,0.35094 -1.47472,0.82574 -2.10644,1.42236 -0.48364,0.45676 -0.88357,0.98714 -1.20264,1.58789 -0.10129,0.187 -0.19178,0.3762 -0.271,0.56983 -0.31587,0.77209 -0.47461,1.59674 -0.47461,2.47412 0,0.87738 0.15874,1.70202 0.47461,2.47411 0.35094,0.84229 0.84192,1.56257 1.47364,2.15919 0.63171,0.59661 1.33435,1.06994 2.10644,1.42089 0.7721,0.35095 1.61439,0.52588 2.52686,0.52588 l 15.89795,0 31.27001,0 15.89795,0 c 0.91247,0 1.75476,-0.17493 2.52685,-0.52588 0.7721,-0.35095 1.47326,-0.82428 2.10498,-1.42089 0.63171,-0.59662 1.12269,-1.3169 1.47363,-2.15919 0.31587,-0.77209 0.47461,-1.59673 0.47461,-2.47411 0,-0.87738 -0.15874,-1.70203 -0.47461,-2.47412 -0.0823,-0.19745 -0.1733,-0.38589 -0.271,-0.56983 -0.31907,-0.60075 -0.719,-1.13113 -1.20263,-1.58789 -0.63172,-0.59662 -1.33288,-1.07142 -2.10498,-1.42236 -0.77209,-0.35096 -1.61439,-0.52588 -2.52685,-0.52588 l -15.89795,0 -31.27001,0 -15.89795,0 z"/><path id="path4193" d="m 383.53369,493.22798 c 0.91247,0 1.75476,-0.17493 2.52685,-0.52588 0.7721,-0.35095 1.47326,-0.82428 2.10498,-1.42089 0.63171,-0.59662 1.12269,-1.3169 1.47363,-2.15919 0.31587,-0.77209 0.47461,-1.59673 0.47461,-2.47411 0,-0.87738 -0.15874,-1.70203 -0.47461,-2.47412 -0.0823,-0.19745 -0.1733,-0.38589 -0.271,-0.56983 -0.31907,-0.60075 -0.719,-1.13113 -1.20263,-1.58789 -0.63172,-0.59662 -1.33288,-1.07142 -2.10498,-1.42236 -0.77209,-0.35096 -1.61439,-0.52588 -2.52685,-0.52588 l -23.65894,0 -23.65894,0 c -0.91246,0 -1.75476,0.17492 -2.52685,0.52588 -0.7721,0.35094 -1.47326,0.82574 -2.10498,1.42236 -0.48363,0.45676 -0.88356,0.98714 -1.20263,1.58789 -0.0977,0.18394 -0.1887,0.37238 -0.271,0.56983 -0.31587,0.77209 -0.47461,1.59674 -0.47461,2.47412 0,0.87738 0.15874,1.70202 0.47461,2.47411 0.35094,0.84229 0.84192,1.56257 1.47363,2.15919 0.63172,0.59661 1.33288,1.06994 2.10498,1.42089 0.77209,0.35095 1.61438,0.52588 2.52685,0.52588 l 23.65894,0 z" style="font-style:normal;font-variant:normal;font-weight:700;font-stretch:normal;font-size:143.75px;line-height:100%;font-family:Jellee;-inkscape-font-specification:'Jellee, Bold';text-align:start;letter-spacing:0;word-spacing:0;writing-mode:lr-tb;text-anchor:start;display:inline;fill:#fff;fill-opacity:1;stroke:#000;stroke-width:1.99999976;stroke-linecap:butt;stroke-linejoin:miter;stroke-miterlimit:4;stroke-dasharray:none;stroke-opacity:1"/><path id="path4195" d="m 344.21581,513.22798 c -0.91247,0 -1.75476,-0.17493 -2.52685,-0.52588 -0.7721,-0.35095 -1.47326,-0.82428 -2.10498,-1.42089 -0.63171,-0.59662 -1.12269,-1.3169 -1.47363,-2.15919 -0.31587,-0.77209 -0.47461,-1.59673 -0.47461,-2.47411 0,-0.87738 0.15874,-1.70203 0.47461,-2.47412 0.0823,-0.19745 0.1733,-0.38589 0.271,-0.56983 0.31907,-0.60075 0.719,-1.13113 1.20263,-1.58789 0.63172,-0.59662 1.33288,-1.07142 2.10498,-1.42236 0.77209,-0.35096 1.61439,-0.52588 2.52685,-0.52588 l 15.65894,0 15.65894,0 c 0.91246,0 1.75476,0.17492 2.52685,0.52588 0.7721,0.35094 1.47326,0.82574 2.10498,1.42236 0.48363,0.45676 0.88356,0.98714 1.20263,1.58789 0.0977,0.18394 0.1887,0.37238 0.271,0.56983 0.31587,0.77209 0.47461,1.59674 0.47461,2.47412 0,0.87738 -0.15874,1.70202 -0.47461,2.47411 -0.35094,0.84229 -0.84192,1.56257 -1.47363,2.15919 -0.63172,0.59661 -1.33288,1.06994 -2.10498,1.42089 -0.77209,0.35095 -1.61438,0.52588 -2.52685,0.52588 l -15.65894,0 z" style="font-style:normal;font-variant:normal;font-weight:700;font-stretch:normal;font-size:143.75px;line-height:100%;font-family:Jellee;-inkscape-font-specification:'Jellee, Bold';text-align:start;letter-spacing:0;word-spacing:0;writing-mode:lr-tb;text-anchor:start;display:inline;fill:#fff;fill-opacity:1;stroke:#000;stroke-width:1.99999976;stroke-linecap:butt;stroke-linejoin:miter;stroke-miterlimit:4;stroke-dasharray:none;stroke-opacity:1"/></g><path style="opacity:.9;fill:url(#linearGradient1078);fill-rule:evenodd" id="path1713" d="m 405.00358,450.33218 c 14.43996,-0.31568 -4.03551,-40.08171 -44.15627,-40.29325 -43.79177,-0.2213 -52.75125,36.11129 -45.79651,36.7752 0,0 11.99913,1.64675 23.41246,4.8361 18.37783,5.18433 40.85952,-4.25356 49.71811,-5.62693 9.87398,-1.52633 15.41629,5.01184 16.82221,4.30888 z"/></g></g></svg>